<svg width="400" height="400" viewBox="0 0 400 400" fill="none" xmlns="http://www.w3.org/2000/svg">
<circle cx="200" cy="200" r="200" fill="white"/>
<rect x="35" y="35" width="330" height="330" rx="100" fill="white"/>
<path d="M161.318 238.805C166.558 237.794 172.31 237.958 178.573 239.298C184.714 240.67 191.277 243.373 198.262 247.406L258.217 282.021L219.529 349.032H213.506L158.068 317.025C144.098 308.96 135.369 299.883 131.879 289.796C128.266 279.742 129.574 269.321 135.802 258.533C138.894 253.178 142.61 248.803 146.949 245.41C151.166 242.05 155.956 239.848 161.318 238.805ZM278.654 55.4287C312.551 65.9267 338.733 93.9674 346.595 128.94L276.634 250.123L217.444 215.794C203.474 207.728 190.404 202.407 178.232 199.829C166.016 197.329 154.845 197.14 144.72 199.263C134.473 201.418 125.344 205.668 117.335 212.013C109.325 218.358 102.52 226.381 96.9187 236.083C90.9592 246.406 87.2735 256.644 85.8611 266.798C84.371 276.907 85.3663 286.743 88.8474 296.308C92.2837 305.949 98.2506 315.242 106.748 324.184C114.714 332.567 125.086 340.566 137.864 348.18C92.7123 342.27 57.0376 306.241 51.6687 260.922L121.099 140.663L180.289 174.992C194.259 183.058 207.329 188.379 219.501 190.957C231.717 193.457 242.888 193.646 253.012 191.523C263.26 189.368 272.389 185.117 280.398 178.772C288.408 172.427 295.212 164.404 300.813 154.702C306.773 144.38 310.459 134.141 311.872 123.987C313.362 113.878 312.367 104.042 308.885 94.4775C305.449 84.8358 299.482 75.5443 290.985 66.6025C287.37 62.7985 283.259 59.0742 278.654 55.4287ZM349.032 249.032C349.032 297.066 315.165 337.187 270.008 346.826L349.032 209.95V249.032ZM50.9675 176.908V150.968C50.9675 106.162 80.4359 68.2392 121.049 55.5215L50.9675 176.908ZM239.665 73.7607C253.635 81.8265 262.364 90.9026 265.854 100.989C269.467 111.043 268.159 121.465 261.93 132.253C258.839 137.608 255.123 141.983 250.784 145.376C246.567 148.736 241.777 150.938 236.415 151.981C231.175 152.992 225.423 152.827 219.16 151.487C213.019 150.115 206.455 147.413 199.47 143.38L139.516 108.764L172.884 50.9678H200.187L239.665 73.7607Z" fill="url(#paint0_linear_157_111)"/>
<defs>
<linearGradient id="paint0_linear_157_111" x1="200" y1="50.9678" x2="200" y2="349.032" gradientUnits="userSpaceOnUse">
<stop offset="0.576923" stop-color="#FF4D00"/>
<stop offset="1" stop-color="#FF7E48"/>
</linearGradient>
</defs>
</svg>
