<svg width="400" height="400" viewBox="0 0 400 400" fill="none" xmlns="http://www.w3.org/2000/svg">
<circle cx="200" cy="200" r="200" fill="black"/>
<rect x="32" y="32" width="336" height="336" rx="168" fill="black"/>
<path d="M189.838 45.2533L189.95 84.9909L110.617 130.799L110.676 151.967L181.587 111.027L181.684 146.531L110.773 187.471L110.923 239.7L60.9035 268.581L60.4854 119.942L189.838 45.2533Z" fill="white"/>
<path d="M339.522 126.05L339.41 164.571L258.494 117.852L258.449 134.189L319.877 169.857L339.305 200.067L339.149 255.53L319.608 263.444L209.736 200.007L209.848 161.076L290.593 207.691L290.638 189.95L229.389 154.379L209.953 124.176L210.102 70.528L229.642 62.6133L339.522 126.05Z" fill="white"/>
<path d="M325.724 289.69L292.408 309.043L211.506 262.332L197.387 270.538L258.643 306.109L261.727 326.881L213.769 354.747L177.727 353.126L67.855 289.69L101.515 270.134L182.244 316.741L197.588 307.826L136.504 272.359L133.42 251.587L179.803 224.633L215.852 226.253L325.724 289.69Z" fill="#B3F206"/>
</svg>
