<svg width="400" height="400" viewBox="0 0 400 400" fill="none" xmlns="http://www.w3.org/2000/svg">
<circle cx="200" cy="200" r="200" fill="#0C3399"/>
<path d="M71.4531 160.082V313.746H84.2614V326.547H109.871V339.348H263.527V326.547H289.129V313.746H314.745V211.308H301.937V198.5H289.129V185.692H276.328V172.891H250.718V160.082H71.4531Z" fill="#F8C5AF"/>
<path d="M314.745 275.328H71.4531V313.746H84.2614V326.547H109.871V339.348H263.527V326.547H289.129V313.746H314.745V275.328Z" fill="#E19A81"/>
<path d="M327.547 300.937H340.348V288.129H352.961L353.156 134.473H340.348V121.672H327.547V96.0626H314.745V83.2616H301.937V70.4533H263.527V57.645H97.0624V70.4533H71.4531V83.2616H58.6448V108.871H45.8438V288.129H58.6448V160.082H71.4531V147.281H250.718V160.082H276.328V172.891H289.129V185.692H301.937V198.5H314.745V211.308H327.547V300.937Z" fill="white"/>
<path d="M148.281 57.645V70.4533H135.473V83.2616H122.672V108.871H109.871V147.281H199.5V108.871H212.308V83.2616H225.11V70.4533H237.911V57.645H148.281Z" fill="#1354C9"/>
<path d="M45.8439 108.864H33.0356V121.672H45.8439V108.864Z" fill="black"/>
<path d="M58.652 96.0626H45.8438V108.871H58.652V96.0626Z" fill="black"/>
<path d="M58.652 83.2544H45.8438V96.0626H58.652V83.2544Z" fill="black"/>
<path d="M71.4533 70.4533H58.645V83.2616H71.4533V70.4533Z" fill="black"/>
<path d="M84.2614 57.645H71.4531V70.4533H84.2614V57.645Z" fill="black"/>
<path d="M97.0627 57.645H84.2544V70.4533H97.0627V57.645Z" fill="black"/>
<path d="M109.871 44.844H97.0625V57.6522H109.871V44.844Z" fill="black"/>
<path d="M122.672 44.844H109.864V57.6522H122.672V44.844Z" fill="black"/>
<path d="M135.48 44.844H122.672V57.6522H135.48V44.844Z" fill="black"/>
<path d="M148.281 44.844H135.473V57.6522H148.281V44.844Z" fill="black"/>
<path d="M161.09 44.844H148.281V57.6522H161.09V44.844Z" fill="black"/>
<path d="M173.891 44.844H161.083V57.6522H173.891V44.844Z" fill="black"/>
<path d="M186.699 44.844H173.891V57.6522H186.699V44.844Z" fill="black"/>
<path d="M199.5 44.844H186.692V57.6522H199.5V44.844Z" fill="black"/>
<path d="M212.308 44.844H199.5V57.6522H212.308V44.844Z" fill="black"/>
<path d="M225.116 44.844H212.308V57.6522H225.116V44.844Z" fill="black"/>
<path d="M237.918 44.844H225.109V57.6522H237.918V44.844Z" fill="black"/>
<path d="M250.726 44.844H237.917V57.6522H250.726V44.844Z" fill="black"/>
<path d="M263.527 44.844H250.719V57.6522H263.527V44.844Z" fill="black"/>
<path d="M276.335 57.645H263.527V70.4533H276.335V57.645Z" fill="black"/>
<path d="M289.136 57.645H276.328V70.4533H289.136V57.645Z" fill="black"/>
<path d="M301.945 57.645H289.136V70.4533H301.945V57.645Z" fill="black"/>
<path d="M314.746 70.4533H301.938V83.2616H314.746V70.4533Z" fill="black"/>
<path d="M327.554 83.2544H314.746V96.0626H327.554V83.2544Z" fill="black"/>
<path d="M340.355 96.0626H327.547V108.871H340.355V96.0626Z" fill="black"/>
<path d="M340.355 108.864H327.547V121.672H340.355V108.864Z" fill="black"/>
<path d="M353.163 121.672H340.355V134.48H353.163V121.672Z" fill="black"/>
<path d="M365.965 134.473H353.156V147.281H365.965V134.473Z" fill="black"/>
<path d="M365.965 147.281H353.156V160.09H365.965V147.281Z" fill="black"/>
<path d="M365.965 160.082H353.156V172.891H365.965V160.082Z" fill="black"/>
<path d="M365.965 172.891H353.156V185.699H365.965V172.891Z" fill="black"/>
<path d="M365.965 185.692H353.156V198.5H365.965V185.692Z" fill="black"/>
<path d="M365.965 198.5H353.156V211.308H365.965V198.5Z" fill="black"/>
<path d="M365.965 211.308H353.156V224.117H365.965V211.308Z" fill="black"/>
<path d="M365.965 224.109H353.156V236.918H365.965V224.109Z" fill="black"/>
<path d="M365.965 236.918H353.156V249.726H365.965V236.918Z" fill="black"/>
<path d="M365.965 249.719H353.156V262.527H365.965V249.719Z" fill="black"/>
<path d="M365.965 262.527H353.156V275.335H365.965V262.527Z" fill="black"/>
<path d="M365.965 275.328H353.156V288.136H365.965V275.328Z" fill="black"/>
<path d="M353.163 288.136H340.355V300.945H353.163V288.136Z" fill="black"/>
<path d="M340.355 300.937H327.547V313.746H340.355V300.937Z" fill="black"/>
<path d="M327.554 300.937H314.746V313.746H327.554V300.937Z" fill="black"/>
<path d="M314.746 313.746H301.938V326.554H314.746V313.746Z" fill="black"/>
<path d="M327.554 224.109H314.746V236.918H327.554V224.109Z" fill="black"/>
<path d="M327.554 236.918H314.746V249.726H327.554V236.918Z" fill="black"/>
<path d="M327.554 249.719H314.746V262.527H327.554V249.719Z" fill="black"/>
<path d="M327.554 262.527H314.746V275.335H327.554V262.527Z" fill="black"/>
<path d="M327.554 275.328H314.746V288.136H327.554V275.328Z" fill="black"/>
<path d="M45.8439 121.672H33.0356V134.48H45.8439V121.672Z" fill="black"/>
<path d="M45.8439 134.473H33.0356V147.281H45.8439V134.473Z" fill="black"/>
<path d="M45.8439 147.281H33.0356V160.09H45.8439V147.281Z" fill="black"/>
<path d="M45.8439 160.082H33.0356V172.891H45.8439V160.082Z" fill="black"/>
<path d="M45.8439 172.891H33.0356V185.699H45.8439V172.891Z" fill="black"/>
<path d="M45.8439 185.692H33.0356V198.5H45.8439V185.692Z" fill="black"/>
<path d="M45.8439 198.5H33.0356V211.308H45.8439V198.5Z" fill="black"/>
<path d="M45.8439 211.308H33.0356V224.117H45.8439V211.308Z" fill="black"/>
<path d="M45.8439 224.109H33.0356V236.918H45.8439V224.109Z" fill="black"/>
<path d="M45.8439 236.918H33.0356V249.726H45.8439V236.918Z" fill="black"/>
<path d="M45.8439 249.719H33.0356V262.527H45.8439V249.719Z" fill="black"/>
<path d="M45.8439 262.527H33.0356V275.335H45.8439V262.527Z" fill="black"/>
<path d="M45.8439 275.328H33.0356V288.136H45.8439V275.328Z" fill="black"/>
<path d="M58.652 288.136H45.8438V300.945H58.652V288.136Z" fill="black"/>
<path d="M71.4533 224.109H58.645V236.918H71.4533V224.109Z" fill="black"/>
<path d="M71.4533 211.308H58.645V224.117H71.4533V211.308Z" fill="black"/>
<path d="M71.4533 198.5H58.645V211.308H71.4533V198.5Z" fill="black"/>
<path d="M71.4533 185.692H58.645V198.5H71.4533V185.692Z" fill="black"/>
<path d="M71.4533 172.891H58.645V185.699H71.4533V172.891Z" fill="black"/>
<path d="M84.2614 147.281H71.4531V160.09H84.2614V147.281Z" fill="black"/>
<path d="M97.0627 147.281H84.2544V160.09H97.0627V147.281Z" fill="black"/>
<path d="M109.871 147.281H97.0625V160.09H109.871V147.281Z" fill="black"/>
<path d="M122.672 147.281H109.864V160.09H122.672V147.281Z" fill="black"/>
<path d="M109.871 134.473H97.0625V147.281H109.871V134.473Z" fill="black"/>
<path d="M109.871 121.672H97.0625V134.48H109.871V121.672Z" fill="black"/>
<path d="M109.871 108.864H97.0625V121.672H109.871V108.864Z" fill="black"/>
<path d="M122.672 108.864H109.864V121.672H122.672V108.864Z" fill="#C9DAF8"/>
<path d="M122.672 96.0626H109.864V108.871H122.672V96.0626Z" fill="black"/>
<path d="M122.672 83.2544H109.864V96.0626H122.672V83.2544Z" fill="black"/>
<path d="M135.48 70.4533H122.672V83.2616H135.48V70.4533Z" fill="black"/>
<path d="M148.281 57.645H135.473V70.4533H148.281V57.645Z" fill="black"/>
<path d="M161.09 57.645H148.281V70.4533H161.09V57.645Z" fill="#C9DAF8"/>
<path d="M173.891 57.645H161.083V70.4533H173.891V57.645Z" fill="#C9DAF8"/>
<path d="M186.699 57.645H173.891V70.4533H186.699V57.645Z" fill="#C9DAF8"/>
<path d="M199.5 57.645H186.692V70.4533H199.5V57.645Z" fill="#C9DAF8"/>
<path d="M212.308 57.645H199.5V70.4533H212.308V57.645Z" fill="#C9DAF8"/>
<path d="M225.116 57.645H212.308V70.4533H225.116V57.645Z" fill="#C9DAF8"/>
<path d="M237.918 57.645H225.109V70.4533H237.918V57.645Z" fill="#C9DAF8"/>
<path d="M135.48 96.0626H122.672V108.871H135.48V96.0626Z" fill="#C9DAF8"/>
<path d="M135.48 83.2544H122.672V96.0626H135.48V83.2544Z" fill="#C9DAF8"/>
<path d="M148.281 70.4533H135.473V83.2616H148.281V70.4533Z" fill="#C9DAF8"/>
<path d="M212.308 134.473H199.5V147.281H212.308V134.473Z" fill="black"/>
<path d="M212.308 121.672H199.5V134.48H212.308V121.672Z" fill="black"/>
<path d="M212.308 108.864H199.5V121.672H212.308V108.864Z" fill="black"/>
<path d="M225.116 96.0626H212.308V108.871H225.116V96.0626Z" fill="black"/>
<path d="M225.116 83.2544H212.308V96.0626H225.116V83.2544Z" fill="black"/>
<path d="M237.918 70.4533H225.109V83.2616H237.918V70.4533Z" fill="black"/>
<path d="M250.726 57.645H237.917V70.4533H250.726V57.645Z" fill="black"/>
<path d="M135.48 147.281H122.672V160.09H135.48V147.281Z" fill="black"/>
<path d="M148.281 147.281H135.473V160.09H148.281V147.281Z" fill="black"/>
<path d="M161.09 147.281H148.281V160.09H161.09V147.281Z" fill="black"/>
<path d="M161.09 198.5H148.281V211.308H161.09V198.5Z" fill="black"/>
<path d="M148.281 198.5H135.473V211.308H148.281V198.5Z" fill="black"/>
<path d="M148.281 211.308H135.473V224.117H148.281V211.308Z" fill="#E19A81"/>
<path d="M135.48 211.308H122.672V224.117H135.48V211.308Z" fill="#E19A81"/>
<path d="M135.48 198.5H122.672V211.308H135.48V198.5Z" fill="#E19A81"/>
<path d="M122.672 198.5H109.864V211.308H122.672V198.5Z" fill="#E19A81"/>
<path d="M109.871 198.5H97.0625V211.308H109.871V198.5Z" fill="#E19A81"/>
<path d="M97.0627 198.5H84.2544V211.308H97.0627V198.5Z" fill="#E19A81"/>
<path d="M161.09 211.308H148.281V224.117H161.09V211.308Z" fill="#E19A81"/>
<path d="M161.09 224.109H148.281V236.918H161.09V224.109Z" fill="#E19A81"/>
<path d="M199.5 198.5H186.692V211.308H199.5V198.5Z" fill="black"/>
<path d="M212.308 198.5H199.5V211.308H212.308V198.5Z" fill="black"/>
<path d="M212.308 185.692H199.5V198.5H212.308V185.692Z" fill="black"/>
<path d="M225.116 185.692H212.308V198.5H225.116V185.692Z" fill="black"/>
<path d="M237.918 185.692H225.109V198.5H237.918V185.692Z" fill="black"/>
<path d="M237.918 224.109H225.109V236.918H237.918V224.109Z" fill="black"/>
<path d="M237.918 236.918H225.109V249.726H237.918V236.918Z" fill="black"/>
<path d="M250.726 224.109H237.917V236.918H250.726V224.109Z" fill="white"/>
<path d="M263.527 224.109H250.719V236.918H263.527V224.109Z" fill="white"/>
<path d="M276.335 224.109H263.527V236.918H276.335V224.109Z" fill="white"/>
<path d="M250.726 236.918H237.917V249.726H250.726V236.918Z" fill="white"/>
<path d="M263.527 236.918H250.719V249.726H263.527V236.918Z" fill="white"/>
<path d="M225.116 224.109H212.308V236.918H225.116V224.109Z" fill="black"/>
<path d="M225.116 236.918H212.308V249.726H225.116V236.918Z" fill="black"/>
<path d="M250.726 185.692H237.917V198.5H250.726V185.692Z" fill="black"/>
<path d="M263.527 185.692H250.719V198.5H263.527V185.692Z" fill="black"/>
<path d="M212.308 211.308H199.5V224.117H212.308V211.308Z" fill="#E19A81"/>
<path d="M199.5 211.308H186.692V224.117H199.5V211.308Z" fill="#E19A81"/>
<path d="M212.308 224.109H199.5V236.918H212.308V224.109Z" fill="#E19A81"/>
<path d="M225.116 198.5H212.308V211.308H225.116V198.5Z" fill="#E19A81"/>
<path d="M225.116 211.308H212.308V224.117H225.116V211.308Z" fill="#E19A81"/>
<path d="M237.918 198.5H225.109V211.308H237.918V198.5Z" fill="#E19A81"/>
<path d="M250.726 198.5H237.917V211.308H250.726V198.5Z" fill="#E19A81"/>
<path d="M263.527 198.5H250.719V211.308H263.527V198.5Z" fill="#E19A81"/>
<path d="M148.281 185.692H135.473V198.5H148.281V185.692Z" fill="black"/>
<path d="M135.48 185.692H122.672V198.5H135.48V185.692Z" fill="black"/>
<path d="M122.672 185.692H109.864V198.5H122.672V185.692Z" fill="black"/>
<path d="M122.672 224.109H109.864V236.918H122.672V224.109Z" fill="black"/>
<path d="M122.672 236.918H109.864V249.726H122.672V236.918Z" fill="black"/>
<path d="M109.871 224.109H97.0625V236.918H109.871V224.109Z" fill="black"/>
<path d="M97.0627 224.109H84.2544V236.918H97.0627V224.109Z" fill="white"/>
<path d="M109.871 236.918H97.0625V249.726H109.871V236.918Z" fill="black"/>
<path d="M135.48 224.109H122.672V236.918H135.48V224.109Z" fill="white"/>
<path d="M135.48 236.918H122.672V249.726H135.48V236.918Z" fill="white"/>
<path d="M148.281 224.109H135.473V236.918H148.281V224.109Z" fill="white"/>
<path d="M148.281 236.918H135.473V249.726H148.281V236.918Z" fill="white"/>
<path d="M173.891 262.527H161.083V275.335H173.891V262.527Z" fill="black"/>
<path d="M186.699 262.527H173.891V275.335H186.699V262.527Z" fill="black"/>
<path d="M199.5 262.527H186.692V275.335H199.5V262.527Z" fill="#E19A81"/>
<path d="M109.871 185.692H97.0625V198.5H109.871V185.692Z" fill="black"/>
<path d="M97.0627 185.692H84.2544V198.5H97.0627V185.692Z" fill="black"/>
<path d="M173.891 147.281H161.083V160.09H173.891V147.281Z" fill="black"/>
<path d="M186.699 147.281H173.891V160.09H186.699V147.281Z" fill="black"/>
<path d="M199.5 147.281H186.692V160.09H199.5V147.281Z" fill="black"/>
<path d="M212.308 147.281H199.5V160.09H212.308V147.281Z" fill="black"/>
<path d="M225.116 147.281H212.308V160.09H225.116V147.281Z" fill="black"/>
<path d="M237.918 147.281H225.109V160.09H237.918V147.281Z" fill="black"/>
<path d="M250.726 147.281H237.917V160.09H250.726V147.281Z" fill="black"/>
<path d="M84.2614 172.891H71.4531V185.699H84.2614V172.891Z" fill="black"/>
<path d="M97.0627 172.891H84.2544V185.699H97.0627V172.891Z" fill="black"/>
<path d="M109.871 172.891H97.0625V185.699H109.871V172.891Z" fill="black"/>
<path d="M122.672 172.891H109.864V185.699H122.672V172.891Z" fill="black"/>
<path d="M135.48 172.891H122.672V185.699H135.48V172.891Z" fill="black"/>
<path d="M148.281 172.891H135.473V185.699H148.281V172.891Z" fill="black"/>
<path d="M161.09 172.891H148.281V185.699H161.09V172.891Z" fill="black"/>
<path d="M173.891 172.891H161.083V185.699H173.891V172.891Z" fill="black"/>
<path d="M186.699 172.891H173.891V185.699H186.699V172.891Z" fill="black"/>
<path d="M199.5 172.891H186.692V185.699H199.5V172.891Z" fill="black"/>
<path d="M212.308 172.891H199.5V185.699H212.308V172.891Z" fill="black"/>
<path d="M225.116 172.891H212.308V185.699H225.116V172.891Z" fill="black"/>
<path d="M237.918 172.891H225.109V185.699H237.918V172.891Z" fill="black"/>
<path d="M250.726 172.891H237.917V185.699H250.726V172.891Z" fill="black"/>
<path d="M84.2614 160.082H71.4531V172.891H84.2614V160.082Z" fill="white"/>
<path d="M71.4533 160.082H58.645V172.891H71.4533V160.082Z" fill="white"/>
<path d="M97.0627 160.082H84.2544V172.891H97.0627V160.082Z" fill="white"/>
<path d="M109.871 160.082H97.0625V172.891H109.871V160.082Z" fill="white"/>
<path d="M122.672 160.082H109.864V172.891H122.672V160.082Z" fill="white"/>
<path d="M135.48 160.082H122.672V172.891H135.48V160.082Z" fill="white"/>
<path d="M148.281 160.082H135.473V172.891H148.281V160.082Z" fill="white"/>
<path d="M161.09 160.082H148.281V172.891H161.09V160.082Z" fill="white"/>
<path d="M173.891 160.082H161.083V172.891H173.891V160.082Z" fill="white"/>
<path d="M186.699 160.082H173.891V172.891H186.699V160.082Z" fill="white"/>
<path d="M199.5 160.082H186.692V172.891H199.5V160.082Z" fill="white"/>
<path d="M212.308 160.082H199.5V172.891H212.308V160.082Z" fill="white"/>
<path d="M225.116 160.082H212.308V172.891H225.116V160.082Z" fill="white"/>
<path d="M237.918 160.082H225.109V172.891H237.918V160.082Z" fill="white"/>
<path d="M250.726 160.082H237.917V172.891H250.726V160.082Z" fill="white"/>
<path d="M263.527 160.082H250.719V172.891H263.527V160.082Z" fill="black"/>
<path d="M276.335 160.082H263.527V172.891H276.335V160.082Z" fill="black"/>
<path d="M289.136 172.891H276.328V185.699H289.136V172.891Z" fill="black"/>
<path d="M301.945 185.692H289.136V198.5H301.945V185.692Z" fill="black"/>
<path d="M314.746 198.5H301.938V211.308H314.746V198.5Z" fill="black"/>
<path d="M71.4533 147.281H58.645V160.09H71.4533V147.281Z" fill="#C6CACD"/>
<path d="M84.2614 134.473H71.4531V147.281H84.2614V134.473Z" fill="#C6CACD"/>
<path d="M97.0627 134.473H84.2544V147.281H97.0627V134.473Z" fill="#C6CACD"/>
<path d="M122.672 134.473H109.864V147.281H122.672V134.473Z" fill="#230F7A"/>
<path d="M135.48 134.473H122.672V147.281H135.48V134.473Z" fill="#230F7A"/>
<path d="M148.281 134.473H135.473V147.281H148.281V134.473Z" fill="#230F7A"/>
<path d="M161.09 134.473H148.281V147.281H161.09V134.473Z" fill="#230F7A"/>
<path d="M173.891 134.473H161.083V147.281H173.891V134.473Z" fill="#230F7A"/>
<path d="M186.699 134.473H173.891V147.281H186.699V134.473Z" fill="#230F7A"/>
<path d="M199.5 134.473H186.692V147.281H199.5V134.473Z" fill="#230F7A"/>
<path d="M225.116 134.473H212.308V147.281H225.116V134.473Z" fill="#C6CACD"/>
<path d="M237.918 134.473H225.109V147.281H237.918V134.473Z" fill="#C6CACD"/>
<path d="M250.726 134.473H237.917V147.281H250.726V134.473Z" fill="#C6CACD"/>
<path d="M263.527 147.281H250.719V160.09H263.527V147.281Z" fill="#C6CACD"/>
<path d="M276.335 147.281H263.527V160.09H276.335V147.281Z" fill="#C6CACD"/>
<path d="M289.136 160.082H276.328V172.891H289.136V160.082Z" fill="#C6CACD"/>
<path d="M301.945 172.891H289.136V185.699H301.945V172.891Z" fill="#C6CACD"/>
<path d="M314.746 185.692H301.938V198.5H314.746V185.692Z" fill="#C6CACD"/>
<path d="M327.554 198.5H314.746V211.308H327.554V198.5Z" fill="#C6CACD"/>
<path d="M340.355 211.308H327.547V224.117H340.355V211.308Z" fill="#C6CACD"/>
<path d="M340.355 224.109H327.547V236.918H340.355V224.109Z" fill="#C6CACD"/>
<path d="M340.355 236.918H327.547V249.726H340.355V236.918Z" fill="#C6CACD"/>
<path d="M340.355 249.719H327.547V262.527H340.355V249.719Z" fill="#C6CACD"/>
<path d="M340.355 262.527H327.547V275.335H340.355V262.527Z" fill="#C6CACD"/>
<path d="M340.355 275.328H327.547V288.136H340.355V275.328Z" fill="#C6CACD"/>
<path d="M352.961 224.109H340.153V236.918H352.961V224.109Z" fill="#C6CACD"/>
<path d="M352.961 236.918H340.153V249.726H352.961V236.918Z" fill="#C6CACD"/>
<path d="M352.961 249.719H340.153V262.527H352.961V249.719Z" fill="#C6CACD"/>
<path d="M352.961 262.527H340.153V275.335H352.961V262.527Z" fill="#C6CACD"/>
<path d="M352.961 275.328H340.153V288.136H352.961V275.328Z" fill="#C6CACD"/>
<path d="M340.355 288.136H327.547V300.945H340.355V288.136Z" fill="#C6CACD"/>
<path d="M327.554 211.308H314.746V224.117H327.554V211.308Z" fill="black"/>
<path d="M71.4533 236.918H58.645V249.726H71.4533V236.918Z" fill="black"/>
<path d="M71.4533 249.719H58.645V262.527H71.4533V249.719Z" fill="black"/>
<path d="M71.4533 262.527H58.645V275.335H71.4533V262.527Z" fill="black"/>
<path d="M84.2614 262.527H71.4531V275.335H84.2614V262.527Z" fill="white"/>
<path d="M97.0627 275.328H84.2544V288.136H97.0627V275.328Z" fill="white"/>
<path d="M109.871 275.328H97.0625V288.136H109.871V275.328Z" fill="white"/>
<path d="M122.672 275.328H109.864V288.136H122.672V275.328Z" fill="white"/>
<path d="M135.48 275.328H122.672V288.136H135.48V275.328Z" fill="white"/>
<path d="M148.281 275.328H135.473V288.136H148.281V275.328Z" fill="white"/>
<path d="M161.09 275.328H148.281V288.136H161.09V275.328Z" fill="white"/>
<path d="M173.891 275.328H161.083V288.136H173.891V275.328Z" fill="white"/>
<path d="M186.699 275.328H173.891V288.136H186.699V275.328Z" fill="white"/>
<path d="M199.5 275.328H186.692V288.136H199.5V275.328Z" fill="white"/>
<path d="M212.308 275.328H199.5V288.136H212.308V275.328Z" fill="white"/>
<path d="M225.116 275.328H212.308V288.136H225.116V275.328Z" fill="white"/>
<path d="M237.918 275.328H225.109V288.136H237.918V275.328Z" fill="white"/>
<path d="M250.726 275.328H237.917V288.136H250.726V275.328Z" fill="white"/>
<path d="M263.527 275.328H250.719V288.136H263.527V275.328Z" fill="white"/>
<path d="M263.527 288.136H250.719V300.945H263.527V288.136Z" fill="white"/>
<path d="M263.527 300.937H250.719V313.746H263.527V300.937Z" fill="white"/>
<path d="M263.527 313.746H250.719V326.554H263.527V313.746Z" fill="white"/>
<path d="M276.335 313.746H263.527V326.554H276.335V313.746Z" fill="white"/>
<path d="M289.136 313.746H276.328V326.554H289.136V313.746Z" fill="white"/>
<path d="M263.527 326.547H250.719V339.355H263.527V326.547Z" fill="white"/>
<path d="M250.726 326.547H237.917V339.355H250.726V326.547Z" fill="white"/>
<path d="M237.918 326.547H225.109V339.355H237.918V326.547Z" fill="white"/>
<path d="M225.116 326.547H212.308V339.355H225.116V326.547Z" fill="white"/>
<path d="M212.308 326.547H199.5V339.355H212.308V326.547Z" fill="white"/>
<path d="M199.5 326.547H186.692V339.355H199.5V326.547Z" fill="white"/>
<path d="M186.699 326.547H173.891V339.355H186.699V326.547Z" fill="white"/>
<path d="M173.891 326.547H161.083V339.355H173.891V326.547Z" fill="white"/>
<path d="M161.09 326.547H148.281V339.355H161.09V326.547Z" fill="white"/>
<path d="M148.281 326.547H135.473V339.355H148.281V326.547Z" fill="white"/>
<path d="M135.48 326.547H122.672V339.355H135.48V326.547Z" fill="white"/>
<path d="M122.672 326.547H109.864V339.355H122.672V326.547Z" fill="white"/>
<path d="M122.672 313.746H109.864V326.554H122.672V313.746Z" fill="white"/>
<path d="M109.871 313.746H97.0625V326.554H109.871V313.746Z" fill="white"/>
<path d="M97.0627 313.746H84.2544V326.554H97.0627V313.746Z" fill="white"/>
<path d="M97.0627 300.937H84.2544V313.746H97.0627V300.937Z" fill="white"/>
<path d="M84.2614 300.937H71.4531V313.746H84.2614V300.937Z" fill="white"/>
<path d="M97.0627 288.136H84.2544V300.945H97.0627V288.136Z" fill="white"/>
<path d="M122.672 300.937H109.864V313.746H122.672V300.937Z" fill="white"/>
<path d="M122.672 288.136H109.864V300.945H122.672V288.136Z" fill="white"/>
<path d="M276.335 275.328H263.527V288.136H276.335V275.328Z" fill="white"/>
<path d="M289.136 275.328H276.328V288.136H289.136V275.328Z" fill="white"/>
<path d="M301.945 275.328H289.136V288.136H301.945V275.328Z" fill="white"/>
<path d="M314.746 262.527H301.938V275.335H314.746V262.527Z" fill="white"/>
<path d="M301.945 288.136H289.136V300.945H301.945V288.136Z" fill="white"/>
<path d="M71.4533 275.328H58.645V288.136H71.4533V275.328Z" fill="black"/>
<path d="M58.652 224.109H45.8438V236.918H58.652V224.109Z" fill="#C6CACD"/>
<path d="M58.652 211.308H45.8438V224.117H58.652V211.308Z" fill="#C6CACD"/>
<path d="M58.652 198.5H45.8438V211.308H58.652V198.5Z" fill="#C6CACD"/>
<path d="M58.652 185.692H45.8438V198.5H58.652V185.692Z" fill="#C6CACD"/>
<path d="M58.652 172.891H45.8438V185.699H58.652V172.891Z" fill="#C6CACD"/>
<path d="M58.652 160.082H45.8438V172.891H58.652V160.082Z" fill="#C6CACD"/>
<path d="M58.652 236.918H45.8438V249.726H58.652V236.918Z" fill="#C6CACD"/>
<path d="M58.652 249.719H45.8438V262.527H58.652V249.719Z" fill="#C6CACD"/>
<path d="M58.652 262.527H45.8438V275.335H58.652V262.527Z" fill="#C6CACD"/>
<path d="M58.652 275.328H45.8438V288.136H58.652V275.328Z" fill="#C6CACD"/>
<path d="M71.4533 288.136H58.645V300.945H71.4533V288.136Z" fill="black"/>
<path d="M71.4533 300.937H58.645V313.746H71.4533V300.937Z" fill="black"/>
<path d="M97.0627 326.547H84.2544V339.355H97.0627V326.547Z" fill="black"/>
<path d="M84.2614 313.746H71.4531V326.554H84.2614V313.746Z" fill="black"/>
<path d="M109.871 326.547H97.0625V339.355H109.871V326.547Z" fill="black"/>
<path d="M122.672 339.355H109.864V352.163H122.672V339.355Z" fill="black"/>
<path d="M135.48 339.355H122.672V352.163H135.48V339.355Z" fill="black"/>
<path d="M148.281 339.355H135.473V352.163H148.281V339.355Z" fill="black"/>
<path d="M161.09 339.355H148.281V352.163H161.09V339.355Z" fill="black"/>
<path d="M173.891 339.355H161.083V352.163H173.891V339.355Z" fill="black"/>
<path d="M186.699 339.355H173.891V352.163H186.699V339.355Z" fill="black"/>
<path d="M199.5 339.355H186.692V352.163H199.5V339.355Z" fill="black"/>
<path d="M212.308 339.355H199.5V352.163H212.308V339.355Z" fill="black"/>
<path d="M173.891 300.937H161.083V313.746H173.891V300.937Z" fill="black"/>
<path d="M186.699 300.937H173.891V313.746H186.699V300.937Z" fill="black"/>
<path d="M199.5 300.937H186.692V313.746H199.5V300.937Z" fill="black"/>
<path d="M212.308 300.937H199.5V313.746H212.308V300.937Z" fill="black"/>
<path d="M225.116 300.937H212.308V313.746H225.116V300.937Z" fill="black"/>
<path d="M225.116 339.355H212.308V352.163H225.116V339.355Z" fill="black"/>
<path d="M237.918 339.355H225.109V352.163H237.918V339.355Z" fill="black"/>
<path d="M250.726 339.355H237.917V352.163H250.726V339.355Z" fill="black"/>
<path d="M263.527 339.355H250.719V352.163H263.527V339.355Z" fill="black"/>
<path d="M276.335 326.547H263.527V339.355H276.335V326.547Z" fill="black"/>
<path d="M289.136 326.547H276.328V339.355H289.136V326.547Z" fill="black"/>
<path d="M301.945 313.746H289.136V326.554H301.945V313.746Z" fill="black"/>
<path d="M301.945 300.937H289.136V313.746H301.945V300.937Z" fill="white"/>
<path d="M314.746 300.937H301.938V313.746H314.746V300.937Z" fill="white"/>
<path d="M314.746 288.136H301.938V300.945H314.746V288.136Z" fill="white"/>
<path d="M327.554 288.136H314.746V300.945H327.554V288.136Z" fill="black"/>
<path d="M58.652 160.082H45.8438V172.891H58.652V160.082Z" fill="black"/>
<path d="M71.4533 147.281H58.645V160.09H71.4533V147.281Z" fill="black"/>
</svg>
