<svg width="408" height="408" viewBox="0 0 408 408" fill="none" xmlns="http://www.w3.org/2000/svg">
<g filter="url(#filter0_d_158_125)">
<circle cx="204" cy="200" r="199" fill="white" stroke="url(#paint0_linear_158_125)" stroke-width="2"/>
<rect x="79.5366" y="75.5365" width="246.498" height="29.5616" rx="14.7808" fill="#0047FF"/>
<rect x="79.5366" y="75.5365" width="246.498" height="29.5616" rx="14.7808" fill="#0047FF"/>
<rect x="79.5366" y="75.5365" width="246.498" height="29.5616" rx="14.7808" fill="#0047FF"/>
<rect x="79.5366" y="75.5365" width="246.498" height="29.5616" rx="14.7808" fill="#0047FF"/>
<rect x="108.162" y="75.5365" width="247.678" height="28.6256" rx="14.3128" transform="rotate(90 108.162 75.5365)" fill="#0047FF"/>
<rect x="108.162" y="75.5365" width="247.678" height="28.6256" rx="14.3128" transform="rotate(90 108.162 75.5365)" fill="#0047FF"/>
<rect x="108.162" y="75.5365" width="247.678" height="28.6256" rx="14.3128" transform="rotate(90 108.162 75.5365)" fill="#0047FF"/>
<rect x="108.162" y="75.5365" width="247.678" height="28.6256" rx="14.3128" transform="rotate(90 108.162 75.5365)" fill="#0047FF"/>
<path d="M313.474 75.5365C321.379 75.5365 327.787 81.9445 327.787 89.8493L327.787 218.327L299.161 218.327L299.161 89.8493C299.161 81.9445 305.569 75.5365 313.474 75.5365V75.5365Z" fill="#0047FF"/>
<path d="M313.474 75.5365C321.379 75.5365 327.787 81.9445 327.787 89.8493L327.787 218.327L299.161 218.327L299.161 89.8493C299.161 81.9445 305.569 75.5365 313.474 75.5365V75.5365Z" fill="#0047FF"/>
<path d="M313.474 75.5365C321.379 75.5365 327.787 81.9445 327.787 89.8493L327.787 218.327L299.161 218.327L299.161 89.8493C299.161 81.9445 305.569 75.5365 313.474 75.5365V75.5365Z" fill="#0047FF"/>
<path d="M313.474 75.5365C321.379 75.5365 327.787 81.9445 327.787 89.8493L327.787 218.327L299.161 218.327L299.161 89.8493C299.161 81.9445 305.569 75.5365 313.474 75.5365V75.5365Z" fill="#0047FF"/>
<rect x="79.5366" y="295.251" width="147.899" height="29.5616" rx="14.7808" fill="#0047FF"/>
<rect x="79.5366" y="295.251" width="147.899" height="29.5616" rx="14.7808" fill="#0047FF"/>
<rect x="79.5366" y="295.251" width="147.899" height="29.5616" rx="14.7808" fill="#0047FF"/>
<rect x="79.5366" y="295.251" width="147.899" height="29.5616" rx="14.7808" fill="#0047FF"/>
<rect x="249.002" y="295.122" width="78.7204" height="29.5616" fill="#00EAFF"/>
<rect x="249.002" y="295.122" width="78.7204" height="29.5616" fill="#00EAFF"/>
<rect x="249.002" y="295.122" width="78.7204" height="29.5616" fill="#00EAFF"/>
<rect x="249.002" y="295.122" width="78.7204" height="29.5616" fill="#00EAFF"/>
<rect x="249.002" y="295.122" width="78.7204" height="29.5616" fill="#00EAFF"/>
<rect x="249.002" y="295.122" width="78.7204" height="29.5616" fill="#00EAFF"/>
<rect x="249.002" y="295.122" width="78.7204" height="29.5616" fill="#00EAFF"/>
<rect x="249.002" y="295.122" width="78.7204" height="29.5616" fill="#00EAFF"/>
<rect x="327.723" y="245.587" width="79.0972" height="29.4208" transform="rotate(90 327.723 245.587)" fill="#00EAFF"/>
<rect x="327.723" y="245.587" width="79.0972" height="29.4208" transform="rotate(90 327.723 245.587)" fill="#00EAFF"/>
<rect x="327.723" y="245.587" width="79.0972" height="29.4208" transform="rotate(90 327.723 245.587)" fill="#00EAFF"/>
<rect x="327.723" y="245.587" width="79.0972" height="29.4208" transform="rotate(90 327.723 245.587)" fill="#00EAFF"/>
<path d="M157.392 259.788C156.13 259.788 155.098 259.047 154.295 257.566C153.492 256.085 152.862 254.376 152.403 252.44C152.059 250.389 151.887 248.68 151.887 247.313C151.887 246.63 152.001 246.003 152.231 245.433C152.46 244.75 152.747 244.18 153.091 243.725L223.108 159.308H170.466C168.975 159.308 167.828 158.682 167.026 157.428C166.337 156.061 166.165 153.84 166.509 150.764L166.681 148.542C167.026 145.353 167.656 143.188 168.574 142.049C169.606 140.796 170.925 140.169 172.531 140.169H250.117C251.264 140.169 252.181 140.91 252.87 142.391C253.672 143.872 254.246 145.637 254.59 147.688C254.934 149.625 255.106 151.333 255.106 152.814C255.106 154.068 254.762 155.093 254.074 155.89L183.713 240.649H241.171C242.892 240.649 244.096 241.275 244.784 242.528C245.472 243.782 245.644 245.946 245.3 249.022L245.128 251.073C244.784 254.376 244.096 256.655 243.064 257.908C242.146 259.161 240.827 259.788 239.107 259.788H157.392Z" fill="#0047FF"/>
<path d="M154.295 257.566C155.098 259.047 156.13 259.788 157.392 259.788H239.107C240.827 259.788 242.146 259.161 243.064 257.908C244.096 256.655 244.784 254.376 245.128 251.073L245.3 249.022C245.644 245.946 245.472 243.782 244.784 242.528C244.096 241.275 242.892 240.649 241.171 240.649L157.908 240.649C153.263 242.272 152.46 244.75 152.231 245.433C152.001 246.003 151.887 246.63 151.887 247.313C151.887 248.68 152.059 250.389 152.403 252.44C152.862 254.376 153.492 256.085 154.295 257.566Z" fill="#0033B5"/>
</g>
<defs>
<filter id="filter0_d_158_125" x="0" y="0" width="408" height="408" filterUnits="userSpaceOnUse" color-interpolation-filters="sRGB">
<feFlood flood-opacity="0" result="BackgroundImageFix"/>
<feColorMatrix in="SourceAlpha" type="matrix" values="0 0 0 0 0 0 0 0 0 0 0 0 0 0 0 0 0 0 127 0" result="hardAlpha"/>
<feOffset dy="4"/>
<feGaussianBlur stdDeviation="2"/>
<feComposite in2="hardAlpha" operator="out"/>
<feColorMatrix type="matrix" values="0 0 0 0 0 0 0 0 0 0 0 0 0 0 0 0 0 0 0.25 0"/>
<feBlend mode="normal" in2="BackgroundImageFix" result="effect1_dropShadow_158_125"/>
<feBlend mode="normal" in="SourceGraphic" in2="effect1_dropShadow_158_125" result="shape"/>
</filter>
<linearGradient id="paint0_linear_158_125" x1="204" y1="0" x2="204" y2="400" gradientUnits="userSpaceOnUse">
<stop stop-color="#2AC3D1"/>
<stop offset="0.369792" stop-color="#0047FF"/>
</linearGradient>
</defs>
</svg>
