<svg width="400" height="400" viewBox="0 0 400 400" fill="none" xmlns="http://www.w3.org/2000/svg">
<g clip-path="url(#clip0_121_227)">
<path d="M400 200C400 89.5431 310.457 0 200 0C89.5431 0 0 89.5431 0 200C0 310.457 89.5431 400 200 400C310.457 400 400 310.457 400 200Z" fill="#1E1F37"/>
<g filter="url(#filter0_d_121_227)">
<path d="M151.38 331.358C151.93 331.53 152.49 331.661 153.057 331.756V350H137.771C131.278 350 126.014 344.736 126.014 338.242V323.417L151.38 331.358ZM190.094 350H174.221V331.93H190.094V350ZM225.955 350H210.082V331.93H225.955V350ZM272.398 338.242C272.398 344.736 267.134 350 260.641 350H246.531V331.841C247.434 331.734 248.324 331.53 249.186 331.229L272.398 323.116V338.242ZM199.5 49C282.619 49 350 107.695 350 180.1C350 229.465 318.676 272.456 272.398 294.818V296.698C272.002 296.795 271.607 296.911 271.214 297.048L246.531 305.674V297.096C246.531 291.573 242.054 287.096 236.531 287.096H235.955C230.432 287.096 225.955 291.573 225.955 297.096V306.93H210.082V297.09C210.082 291.57 205.608 287.096 200.088 287.096C194.568 287.096 190.094 291.57 190.094 297.09V306.93H174.221V297.096C174.221 291.573 169.744 287.096 164.221 287.096H163.057C157.534 287.096 153.057 291.573 153.057 297.096V305.688L126.014 297.222V294.534C80.0586 272.093 49 229.256 49 180.1C49 107.695 116.381 49 199.5 49ZM199.5 230.07C197.227 230.07 195.385 237.045 195.385 245.649C195.385 254.254 197.227 261.229 199.5 261.229C201.773 261.229 203.615 254.254 203.615 245.649C203.615 237.045 201.773 230.07 199.5 230.07ZM143.944 130.717C118.457 130.717 97.7949 152.958 97.7949 180.394C97.7949 207.829 111.61 238.734 143.944 230.07C176.278 221.406 190.094 207.829 190.094 180.394C190.094 152.958 169.432 130.717 143.944 130.717ZM256.231 130.717C230.744 130.717 210.082 152.958 210.082 180.394C210.082 207.829 223.897 221.406 256.231 230.07C288.565 238.734 302.381 207.829 302.381 180.394C302.381 152.958 281.719 130.717 256.231 130.717Z" fill="url(#paint0_linear_121_227)"/>
</g>
</g>
<defs>
<filter id="filter0_d_121_227" x="45" y="49" width="309" height="309" filterUnits="userSpaceOnUse" color-interpolation-filters="sRGB">
<feFlood flood-opacity="0" result="BackgroundImageFix"/>
<feColorMatrix in="SourceAlpha" type="matrix" values="0 0 0 0 0 0 0 0 0 0 0 0 0 0 0 0 0 0 127 0" result="hardAlpha"/>
<feOffset dy="4"/>
<feGaussianBlur stdDeviation="2"/>
<feComposite in2="hardAlpha" operator="out"/>
<feColorMatrix type="matrix" values="0 0 0 0 0 0 0 0 0 0 0 0 0 0 0 0 0 0 0.7 0"/>
<feBlend mode="normal" in2="BackgroundImageFix" result="effect1_dropShadow_121_227"/>
<feBlend mode="normal" in="SourceGraphic" in2="effect1_dropShadow_121_227" result="shape"/>
</filter>
<linearGradient id="paint0_linear_121_227" x1="199.5" y1="49" x2="199.5" y2="350" gradientUnits="userSpaceOnUse">
<stop stop-color="#2869AC"/>
<stop offset="1" stop-color="#8752D7"/>
</linearGradient>
<clipPath id="clip0_121_227">
<rect width="400" height="400" fill="white"/>
</clipPath>
</defs>
</svg>
