<svg width="351" height="351" viewBox="0 0 351 351" fill="none" xmlns="http://www.w3.org/2000/svg">
<g filter="url(#filter0_d_119_215)">
<path d="M121.187 320.093C121.643 320.236 122.107 320.351 122.576 320.44V343H105.158C97.7585 343 91.7598 337.001 91.7598 329.602V310.881L121.187 320.093ZM164.781 343H146.693V320.664H164.781V343ZM205.646 343H187.559V320.664H205.646V343ZM258.57 329.602C258.57 337.001 252.572 343 245.172 343H229.094V320.549C229.926 320.436 230.747 320.242 231.543 319.964L258.57 310.517V329.602ZM175.5 0C270.217 0 347 66.8853 347 149.393C347 205.647 311.305 254.636 258.57 280.118V284.062C258.311 284.135 258.053 284.216 257.796 284.306L229.094 294.337V281.318C229.094 275.796 224.617 271.318 219.094 271.318H215.646C210.124 271.318 205.646 275.796 205.646 281.318V295.664H187.559V281.318C187.559 275.796 183.081 271.318 177.559 271.318H174.781C169.258 271.318 164.781 275.796 164.781 281.318V295.664H146.693V281.318C146.693 275.796 142.216 271.318 136.693 271.318H132.576C127.053 271.318 122.576 275.796 122.576 281.318V294.332L91.7598 284.685V279.795C39.3923 254.223 4 205.408 4 149.393C4 66.8853 80.7832 0 175.5 0ZM175.5 206.336C172.91 206.336 170.811 214.284 170.811 224.089C170.811 233.894 172.91 241.842 175.5 241.842C178.09 241.842 180.189 233.894 180.189 224.089C180.189 214.284 178.09 206.336 175.5 206.336ZM112.192 93.1191C83.1484 93.1191 59.6035 118.464 59.6035 149.728C59.6035 180.991 75.3467 216.209 112.192 206.336C149.038 196.463 164.781 180.991 164.781 149.728C164.781 118.464 141.236 93.1191 112.192 93.1191ZM240.147 93.1191C211.103 93.1191 187.559 118.464 187.559 149.728C187.559 180.991 203.302 196.463 240.147 206.336C276.993 216.209 292.736 180.991 292.736 149.728C292.736 118.464 269.191 93.1191 240.147 93.1191Z" fill="url(#paint0_linear_119_215)"/>
</g>
<defs>
<filter id="filter0_d_119_215" x="0" y="0" width="351" height="351" filterUnits="userSpaceOnUse" color-interpolation-filters="sRGB">
<feFlood flood-opacity="0" result="BackgroundImageFix"/>
<feColorMatrix in="SourceAlpha" type="matrix" values="0 0 0 0 0 0 0 0 0 0 0 0 0 0 0 0 0 0 127 0" result="hardAlpha"/>
<feOffset dy="4"/>
<feGaussianBlur stdDeviation="2"/>
<feComposite in2="hardAlpha" operator="out"/>
<feColorMatrix type="matrix" values="0 0 0 0 0 0 0 0 0 0 0 0 0 0 0 0 0 0 0.7 0"/>
<feBlend mode="normal" in2="BackgroundImageFix" result="effect1_dropShadow_119_215"/>
<feBlend mode="normal" in="SourceGraphic" in2="effect1_dropShadow_119_215" result="shape"/>
</filter>
<linearGradient id="paint0_linear_119_215" x1="175.5" y1="0" x2="175.5" y2="343" gradientUnits="userSpaceOnUse">
<stop stop-color="#2869AC"/>
<stop offset="1" stop-color="#8752D7"/>
</linearGradient>
</defs>
</svg>
