<svg width="220" height="71" viewBox="0 0 220 71" fill="none" xmlns="http://www.w3.org/2000/svg">
<path d="M71.2068 61.3085V57.297V55.2025C71.2068 52.5755 71.7201 50.3035 72.7101 48.3865C73.7368 46.4695 75.0568 44.801 76.7434 43.381C78.4301 41.961 80.2634 40.6475 82.2434 39.5115C84.2234 38.3755 86.2401 37.275 88.2201 36.2455C90.2001 35.1805 92.0334 34.08 93.6834 32.944C95.3334 31.808 96.6901 30.4945 97.7168 29.039C98.7434 27.5835 99.2568 25.8795 99.2568 23.927C99.2568 21.3 98.3034 19.17 96.3968 17.537C94.4901 15.904 91.9234 15.0875 88.6968 15.0875C85.2134 15.0875 82.4268 16.046 80.3368 17.9275C78.2468 19.809 77.0368 22.365 76.7801 25.5245H70.0334C70.1068 22.5425 70.8768 19.809 72.3068 17.3595C73.7368 14.91 75.8634 12.9575 78.6501 11.502C81.4368 10.0465 84.8834 9.301 88.9534 9.301C92.5101 9.301 95.5901 9.9045 98.1934 11.1115C100.797 12.3185 102.85 14.0225 104.28 16.2235C105.71 18.4245 106.407 20.945 106.407 23.856C106.407 26.5185 105.893 28.7905 104.903 30.672C103.913 32.5535 102.557 34.1865 100.907 35.571C99.2568 36.9555 97.4601 38.198 95.4801 39.2985C93.5368 40.399 91.5568 41.4285 89.5768 42.4225C87.5968 43.4165 85.8001 44.4815 84.1501 45.582C82.5001 46.6825 81.1801 47.925 80.1901 49.345C79.2001 50.765 78.6868 52.469 78.6868 54.4215V55.451H106.663V61.273H71.2068V61.3085Z" fill="#0052FF"/>
<g opacity="0.2">
<path d="M40.0034 61.3085V55.4865H67.9801V54.457C67.9801 52.5045 67.4668 50.8005 66.4768 49.3805C65.4868 47.9605 64.1667 46.718 62.5168 45.6175C60.8668 44.517 59.0701 43.452 57.0901 42.458C55.1101 41.464 53.1301 40.399 51.1868 39.334C49.2434 38.2335 47.4468 37.0265 45.7601 35.6065C44.1101 34.222 42.7901 32.589 41.7634 30.7075C40.7734 28.826 40.2601 26.554 40.2601 23.8915C40.2601 20.9805 40.9934 18.4245 42.3868 16.259C43.8168 14.058 45.8334 12.354 48.4734 11.147C51.0767 9.94 54.1567 9.3365 57.7134 9.3365C61.7834 9.3365 65.2301 10.082 68.0168 11.5375C70.8034 12.993 72.9301 14.9455 74.3601 17.395C75.7901 19.8445 76.5601 22.578 76.6334 25.56H69.8868C69.6301 22.4005 68.4201 19.8445 66.3301 17.963C64.2401 16.0815 61.4534 15.123 57.9701 15.123C54.7434 15.123 52.1768 15.9395 50.2701 17.5725C48.3634 19.2055 47.4101 21.3355 47.4101 23.9625C47.4101 25.915 47.9234 27.6545 48.9501 29.0745C49.9768 30.53 51.2968 31.8435 52.9834 32.9795C54.6334 34.1155 56.4667 35.216 58.4467 36.281C60.4267 37.346 62.4434 38.411 64.4234 39.547C66.4034 40.683 68.2367 41.961 69.9234 43.4165C71.6101 44.8365 72.9301 46.5405 73.9567 48.422C74.9834 50.339 75.4601 52.611 75.4601 55.238V57.3325V61.344H40.0034V61.3085Z" fill="#0052FF"/>
</g>
<path d="M23.7966 61.344L23.8333 10.011H30.7633V55.451H55.8066V61.344H23.7966Z" fill="#0052FF"/>
<path d="M128.957 61.3085L110.073 9.9755H116.783L133.027 53.8535L149.27 9.9755H155.98L137.133 61.3085H128.957Z" fill="#0052FF"/>
<path d="M164.707 61.3085V9.9755H198.147L198.11 15.762H171.527V32.518H195.47V38.269H171.49V55.38L198.843 55.451V61.3085H164.707Z" fill="#0052FF"/>
</svg>
