<svg width="454" height="454" viewBox="0 0 454 454" fill="none" xmlns="http://www.w3.org/2000/svg">
<g filter="url(#filter0_d_119_215)">
<path d="M157.498 412.632C157.725 412.703 157.954 412.764 158.184 412.822V446H135.535C125.913 446 118.113 438.2 118.113 428.578V400.302L157.498 412.632ZM213.062 446H189.543V413.203H213.062V446ZM266.199 446H242.68V413.203H266.199V446ZM335.016 428.578C335.016 438.2 327.216 446 317.594 446H296.688V413.01C297.348 412.893 297.999 412.725 298.634 412.503L335.016 399.786V428.578ZM227 0C350.16 0 450 86.9704 450 194.254C450 267.401 403.586 331.101 335.016 364.235V373.304L296.688 386.7V362.793C296.688 357.27 292.21 352.793 286.688 352.793H276.199C270.676 352.793 266.199 357.27 266.199 362.793V388.203H242.68V362.793C242.68 357.27 238.203 352.793 232.68 352.793H223.062C217.54 352.793 213.063 357.27 213.062 362.793V388.203H189.543V362.793C189.543 357.27 185.066 352.793 179.543 352.793H168.184C162.661 352.793 158.184 357.27 158.184 362.793V386.65L118.113 374.106V363.814C50.0204 330.563 4 267.091 4 194.254C4 86.9704 103.84 0 227 0ZM227 268.297C223.632 268.297 220.902 278.632 220.902 291.381C220.902 304.13 223.632 314.465 227 314.465C230.368 314.465 233.098 304.13 233.098 291.381C233.098 278.632 230.368 268.297 227 268.297ZM144.682 121.082C106.916 121.082 76.3008 154.037 76.3008 194.689C76.3008 235.342 96.7715 281.134 144.682 268.297C192.592 255.459 213.062 235.342 213.062 194.689C213.062 154.037 182.447 121.082 144.682 121.082ZM311.061 121.082C273.295 121.082 242.68 154.037 242.68 194.689C242.68 235.342 263.15 255.459 311.061 268.297C358.971 281.134 379.441 235.342 379.441 194.689C379.441 154.037 348.826 121.082 311.061 121.082Z" fill="url(#paint0_linear_119_215)"/>
</g>
<defs>
<filter id="filter0_d_119_215" x="0" y="0" width="454" height="454" filterUnits="userSpaceOnUse" color-interpolation-filters="sRGB">
<feFlood flood-opacity="0" result="BackgroundImageFix"/>
<feColorMatrix in="SourceAlpha" type="matrix" values="0 0 0 0 0 0 0 0 0 0 0 0 0 0 0 0 0 0 127 0" result="hardAlpha"/>
<feOffset dy="4"/>
<feGaussianBlur stdDeviation="2"/>
<feComposite in2="hardAlpha" operator="out"/>
<feColorMatrix type="matrix" values="0 0 0 0 0 0 0 0 0 0 0 0 0 0 0 0 0 0 0.7 0"/>
<feBlend mode="normal" in2="BackgroundImageFix" result="effect1_dropShadow_119_215"/>
<feBlend mode="normal" in="SourceGraphic" in2="effect1_dropShadow_119_215" result="shape"/>
</filter>
<linearGradient id="paint0_linear_119_215" x1="227" y1="0" x2="227" y2="446" gradientUnits="userSpaceOnUse">
<stop stop-color="#2869AC"/>
<stop offset="1" stop-color="#8752D7"/>
</linearGradient>
</defs>
</svg>
