<svg width="140" height="140" viewBox="0 0 140 140" fill="none" xmlns="http://www.w3.org/2000/svg">
<path d="M131.996 33.8514C126.394 25.7026 120.791 19.5909 114.68 15.5165C102.966 7.87692 89.2146 6.85831 71.3889 12.97C59.6749 16.5351 44.9051 26.7212 31.6632 40.4724C19.9492 52.1864 10.7818 65.9376 5.17942 79.6888C-0.932228 93.9493 -1.44153 107.191 2.6329 116.868C7.21663 127.054 17.912 131.638 28.0981 131.638C31.1539 131.638 34.719 131.128 37.7749 130.11C51.5261 126.545 65.2773 115.849 74.4447 107.7C74.954 107.191 75.4634 106.173 75.4634 105.154C75.4634 104.135 74.954 103.626 74.4447 102.607C73.4261 101.08 71.3889 100.57 69.3517 102.098C56.6191 111.775 45.4144 117.377 35.2283 117.887C32.1725 108.21 34.2097 95.9865 40.8307 82.7446C44.3958 76.1236 48.9796 69.5027 54.5819 63.391C60.1842 57.2794 66.2959 52.1864 73.4261 48.1119C75.4634 47.0933 75.4634 44.5468 74.4447 43.0189C73.9354 42.0003 73.4261 41.491 72.4075 41.491C71.3889 40.9817 70.3703 41.491 69.3517 42.0003C61.7121 46.584 54.5819 51.6771 48.4702 58.298C41.8493 64.919 36.7563 72.0492 32.1725 79.6888C26.5702 89.8748 23.0051 100.061 22.4957 109.228C21.9864 111.775 20.4585 112.794 19.4399 112.794C17.912 113.303 15.8748 112.794 14.8562 111.266C10.2725 105.154 10.2725 94.9679 14.8562 82.2353C19.4399 70.5213 27.5888 57.7887 38.2842 47.6026C48.9795 36.9072 61.2028 28.7584 72.9168 24.1746C79.0285 22.1374 84.6308 20.6095 89.2146 20.6095C96.3448 20.6095 101.947 23.156 105.003 27.7398C114.17 42.5096 109.077 59.3166 98.382 79.1795C97.8727 80.1981 97.8727 81.2167 97.8727 82.2353C98.382 83.2539 98.8913 83.7632 99.4006 84.2725C100.929 85.2911 102.966 85.2911 104.494 83.2539C110.096 75.6143 114.68 67.4655 117.736 59.8259C118.245 59.3166 118.245 58.298 119.263 58.298C119.773 57.7887 120.791 57.7887 121.301 57.7887C123.338 57.7887 124.357 58.8073 125.375 60.3352C126.394 62.3724 126.903 65.9376 126.903 70.012C126.903 73.5771 126.394 77.6516 125.375 82.2353C121.81 98.0237 111.115 115.34 98.8913 126.035C97.8727 126.545 97.8727 127.563 97.8727 128.582C97.8727 129.601 98.382 130.11 98.8913 130.619C99.4006 131.128 100.419 131.638 100.929 131.638C101.947 131.638 102.966 131.638 103.475 131.128C119.773 118.396 132.505 100.061 137.598 82.7446C142.182 64.919 140.145 46.0747 131.996 33.8514Z" fill="url(#paint0_linear_211_94)"/>
<defs>
<linearGradient id="paint0_linear_211_94" x1="140" y1="70.3189" x2="-8.42692e-06" y2="70.3189" gradientUnits="userSpaceOnUse">
<stop stop-color="#FF5D00"/>
<stop offset="1" stop-color="#EB0000"/>
</linearGradient>
</defs>
</svg>
