<svg width="1517" height="1328" viewBox="0 0 1517 1328" fill="none" xmlns="http://www.w3.org/2000/svg">
<path d="M1429.34 269.107C1368.67 180.866 1308.01 114.685 1241.83 70.5646C1114.98 -12.1615 966.072 -23.1916 773.045 42.9892C646.198 81.5947 486.261 191.896 342.87 340.803C216.023 467.649 116.752 616.556 56.0861 765.463C-10.0948 919.885 -15.6098 1063.28 28.5107 1168.06C78.1463 1278.36 193.963 1328 304.264 1328C337.354 1328 375.96 1322.48 409.05 1311.45C557.957 1272.85 706.864 1157.03 806.135 1068.79C811.65 1063.28 817.165 1052.25 817.165 1041.22C817.165 1030.19 811.65 1024.67 806.135 1013.64C795.105 997.096 773.045 991.581 750.985 1008.13C613.108 1112.91 491.776 1173.58 381.475 1179.09C348.385 1074.31 370.445 941.945 442.141 798.553C480.746 726.858 530.382 655.162 591.048 588.981C651.713 522.8 717.894 467.649 795.105 423.529C817.165 412.499 817.165 384.923 806.135 368.378C800.62 357.348 795.105 351.833 784.075 351.833C773.045 346.318 762.015 351.833 750.985 357.348C668.259 406.984 591.048 462.134 524.867 533.83C453.171 605.526 398.02 682.737 348.385 765.463C287.719 875.764 249.113 986.066 243.598 1085.34C238.083 1112.91 221.538 1123.94 210.508 1123.94C193.963 1129.46 171.902 1123.94 160.872 1107.4C111.237 1041.22 111.237 930.915 160.872 793.038C210.508 666.192 298.749 528.315 414.565 418.014C530.382 302.197 662.743 213.956 789.59 164.321C855.771 142.26 916.437 125.715 966.072 125.715C1043.28 125.715 1103.95 153.291 1137.04 202.926C1236.31 362.863 1181.16 544.86 1065.34 759.948C1059.83 770.978 1059.83 782.008 1059.83 793.038C1065.34 804.069 1070.86 809.584 1076.37 815.099C1092.92 826.129 1114.98 826.129 1131.52 804.069C1192.19 721.343 1241.83 633.101 1274.92 550.375C1280.43 544.86 1280.43 533.83 1291.46 533.83C1296.98 528.315 1308.01 528.315 1313.52 528.315C1335.58 528.315 1346.61 539.345 1357.64 555.891C1368.67 577.951 1374.19 616.556 1374.19 660.677C1374.19 699.282 1368.67 743.403 1357.64 793.038C1319.04 964.006 1203.22 1151.52 1070.86 1267.33C1059.83 1272.85 1059.83 1283.88 1059.83 1294.91C1059.83 1305.94 1065.34 1311.45 1070.86 1316.97C1076.37 1322.48 1087.4 1328 1092.92 1328C1103.95 1328 1114.98 1328 1120.49 1322.48C1296.98 1184.61 1434.85 986.066 1490 798.553C1539.64 605.526 1517.58 401.469 1429.34 269.107Z" fill="url(#paint0_linear_11_327)"/>
<defs>
<linearGradient id="paint0_linear_11_327" x1="1516.01" y1="664" x2="-9.12521e-05" y2="664" gradientUnits="userSpaceOnUse">
<stop stop-color="#FF5D00"/>
<stop offset="1" stop-color="#EB0000"/>
</linearGradient>
</defs>
</svg>
