<svg width="135" height="131" viewBox="0 0 135 131" fill="none" xmlns="http://www.w3.org/2000/svg">
<path d="M47.5801 95.66L47.7801 95.33C47.7801 95.4 47.6701 95.51 47.5801 95.66Z" fill="#FF002B"/>
<path d="M47.8101 95.27C47.8148 95.2536 47.8148 95.2363 47.8101 95.22V95.27Z" fill="#FF002B"/>
<path d="M87.6499 96.09L87.6399 96.08L87.6499 96.09Z" fill="#FF002B"/>
<path d="M87.4899 95.84C87.4569 95.7779 87.4202 95.7178 87.3799 95.66L87.4899 95.84Z" fill="#FF002B"/>
<path d="M87.61 96C87.585 95.9503 87.5548 95.9034 87.52 95.86L87.61 96Z" fill="#FF002B"/>
<path d="M67.48 47C60.55 47 57.28 40.05 57.28 40.05C58.4809 40.6073 59.7862 40.9038 61.11 40.92C62.78 40.78 63.67 37.92 67.48 37.92C71.29 37.92 72.17 40.78 73.84 40.92C75.164 40.9053 76.4697 40.6088 77.67 40.05C77.67 40.05 74.41 47 67.48 47Z" fill="#FF002B"/>
<path d="M114.28 78.52L115.28 71.89C115.392 71.0864 115.764 70.3417 116.34 69.77L121.5 64.71C121.5 64.71 123.5 62.87 122.37 58.84L110.37 69.08C109.866 69.5155 109.548 70.1273 109.48 70.79L108 85L112.45 81.64C113.428 80.8907 114.074 79.789 114.25 78.57" fill="#FF002B"/>
<path d="M133.37 103.13L121.67 83.74C121.67 83.74 119.67 86.88 119.67 87.74C119.67 88.44 118.15 101.38 118.14 106.22C118.14 106.996 117.959 107.762 117.612 108.456C117.265 109.15 116.761 109.754 116.14 110.22L115.46 110.73C114.679 111.318 114.038 112.071 113.581 112.935C113.125 113.799 112.865 114.754 112.82 115.73L112.37 127L131.22 113.09C132.73 111.967 133.78 110.334 134.176 108.494C134.571 106.655 134.285 104.734 133.37 103.09" fill="#FF002B"/>
<path d="M3.73998 113.13L22.58 127L22.1 115.75C22.0571 114.773 21.7981 113.818 21.3416 112.953C20.8851 112.089 20.2424 111.336 19.46 110.75L18.78 110.24C18.159 109.774 17.655 109.17 17.3078 108.476C16.9607 107.782 16.78 107.016 16.78 106.24C16.78 101.4 15.24 88.45 15.25 87.76C15.25 86.85 13.25 83.76 13.25 83.76L1.58998 103.13C0.675066 104.774 0.388714 106.695 0.78422 108.534C1.17973 110.374 2.23015 112.007 3.73998 113.13Z" fill="#FF002B"/>
<path d="M25.4601 70.79C25.3925 70.1273 25.0741 69.5155 24.5701 69.08L12.6201 58.84C11.5201 62.84 13.5001 64.71 13.5001 64.71L18.6501 69.77C19.2306 70.3394 19.6067 71.0847 19.7201 71.89L20.7201 78.52C20.8878 79.7396 21.5313 80.8432 22.5101 81.59L26.9201 85L25.4601 70.79Z" fill="#FF002B"/>
<path d="M94.8001 99.76L100.48 93.92L103.48 64.99C103.489 64.9038 103.466 64.8173 103.418 64.7457C103.369 64.6741 103.297 64.6218 103.213 64.598C103.13 64.5742 103.041 64.5804 102.962 64.6155C102.883 64.6506 102.818 64.7123 102.78 64.79L99.6901 71.91C99.0041 73.5013 98.0351 74.9548 96.8301 76.2L94.5401 78.57L90.1801 76L90.2701 75.93C92.1901 74.26 94.0201 70.93 94.7101 69.53C94.7403 69.4783 94.7548 69.419 94.752 69.3591C94.7492 69.2993 94.7291 69.2416 94.6942 69.193C94.6593 69.1443 94.6111 69.1068 94.5553 69.085C94.4996 69.0632 94.4387 69.058 94.3801 69.07C92.3801 69.55 88.1101 69.91 87.1601 70.41C86.2101 70.91 79.6801 76.5 77.9801 78.15C77.9319 78.1932 77.8984 78.2504 77.8843 78.3136C77.8703 78.3768 77.8764 78.4428 77.9017 78.5023C77.9271 78.5619 77.9705 78.612 78.0258 78.6457C78.0811 78.6793 78.1455 78.6948 78.2101 78.69C79.8201 78.56 83.3701 78.25 85.9401 77.86L88.1801 81.01L83.1801 85.1L85.3501 88.9C85.3501 88.9 81.5801 89.02 80.7901 88.66C80.0001 88.3 70.5501 81.49 70.5501 81.49V85.1C70.1566 85.5164 69.6822 85.8482 69.1561 86.0749C68.6299 86.3016 68.063 86.4185 67.4901 86.4185C66.9171 86.4185 66.3502 86.3016 65.8241 86.0749C65.2979 85.8482 64.8236 85.5164 64.4301 85.1V81.5C64.4301 81.5 54.9601 88.31 54.1801 88.67C53.4001 89.03 49.6301 88.91 49.6301 88.91L51.7901 85.11L46.7901 81.02L48.9101 77.84H49.0301C51.6401 78.25 56.1201 78.56 58.0901 78.68C58.1578 78.6862 58.2256 78.6701 58.2832 78.634C58.3408 78.5979 58.385 78.5438 58.4088 78.4802C58.4327 78.4165 58.435 78.3468 58.4153 78.2817C58.3957 78.2166 58.3552 78.1598 58.3001 78.12C56.2201 76.46 48.7501 70.89 47.8201 70.4C46.8901 69.91 42.6101 69.54 40.6001 69.06C40.5416 69.0499 40.4814 69.0562 40.4264 69.0783C40.3713 69.1004 40.3234 69.1374 40.2881 69.1851C40.2529 69.2328 40.2316 69.2894 40.2266 69.3486C40.2216 69.4077 40.2332 69.4671 40.2601 69.52C40.9601 70.89 42.7901 74.25 44.7001 75.92L44.9501 76.11L40.4401 78.55L38.1401 76.18C36.935 74.9348 35.966 73.4813 35.2801 71.89L32.1901 64.77C32.1517 64.6923 32.0873 64.6306 32.0081 64.5955C31.9289 64.5604 31.8399 64.5542 31.7566 64.578C31.6733 64.6018 31.601 64.6541 31.5523 64.7257C31.5036 64.7973 31.4816 64.8838 31.4901 64.97L34.2701 91.87C34.4078 93.1779 34.9779 94.4026 35.8901 95.35L40.1601 99.74C40.7258 100.32 41.0417 101.099 41.0401 101.91V105.8L35.1001 103L35.6201 107.57C35.7492 108.775 36.1753 109.93 36.8601 110.93C43.1733 119.942 52.2627 126.639 62.7401 130C65.8222 130.97 69.1279 130.97 72.2101 130C82.6965 126.62 91.789 119.901 98.1001 110.87C98.7805 109.867 99.2061 108.714 99.3401 107.51L99.8501 102.94L93.9201 105.78V101.89C93.9184 101.079 94.2343 100.3 94.8001 99.72M50.4601 112.32C50.1874 112.493 49.873 112.59 49.5501 112.6C47.6901 112.6 46.0701 108.93 46.0701 108.93V99.07C46.0706 98.8073 46.1286 98.5479 46.2401 98.31L47.3101 96.05C47.3901 95.8484 47.5275 95.6746 47.7052 95.5502C47.8829 95.4258 48.0932 95.3562 48.3101 95.35C48.6016 95.3539 48.8895 95.4152 49.1574 95.5304C49.4252 95.6456 49.6677 95.8124 49.8711 96.0214C50.0745 96.2303 50.2347 96.4773 50.3426 96.7481C50.4505 97.019 50.504 97.3085 50.5001 97.6L50.4601 112.32ZM74.1501 118.53C74.1501 118.53 71.0501 124.15 67.4801 124.15C63.9101 124.15 60.8001 118.53 60.8001 118.53V103.5C60.7994 103.091 60.9101 102.69 61.1201 102.34L63.1201 98.88C63.3111 98.559 63.5818 98.2928 63.9059 98.1071C64.23 97.9214 64.5965 97.8225 64.9701 97.82H69.8801C70.2542 97.8196 70.6219 97.9172 70.9465 98.1032C71.2711 98.2892 71.5413 98.557 71.7301 98.88L73.7901 102.34C73.9925 102.693 74.0994 103.093 74.1001 103.5L74.1501 118.53ZM88.8801 108.93C88.8801 108.93 87.2601 112.6 85.4001 112.6C85.0773 112.589 84.7634 112.492 84.4901 112.32V97.64C84.4861 97.3485 84.5396 97.059 84.6475 96.7881C84.7554 96.5173 84.9156 96.2703 85.119 96.0614C85.3224 95.8524 85.5649 95.6856 85.8327 95.5704C86.1006 95.4552 86.3885 95.3939 86.6801 95.39C86.8969 95.3962 87.1072 95.4658 87.2849 95.5902C87.4627 95.7146 87.6 95.8884 87.6801 96.09L88.7601 98.35C88.8625 98.5904 88.9169 98.8486 88.9201 99.11L88.8801 108.93Z" fill="#FF002B"/>
<path d="M74.29 25.81C74.2727 25.7349 74.2493 25.6613 74.22 25.59L73.95 24.59L67.48 0.22998L61.65 22.15L60.91 24.95L60.73 25.62C60.6485 25.8242 60.6012 26.0404 60.59 26.26C60.5631 26.695 60.6789 27.1269 60.92 27.49C61.0405 27.6753 61.1928 27.8378 61.37 27.97L62.68 28.97L67.48 22.73L72.28 28.97L73.59 27.97C73.6792 27.9073 73.7599 27.8334 73.83 27.75C73.9052 27.6702 73.9722 27.5831 74.03 27.49C74.2711 27.1269 74.387 26.695 74.36 26.26C74.3562 26.1174 74.3327 25.9761 74.29 25.84" fill="#FF002B"/>
<path d="M67.48 47C74.41 47 77.67 40.05 77.67 40.05C76.4697 40.6088 75.164 40.9053 73.84 40.92C72.17 40.78 71.28 37.92 67.48 37.92C63.68 37.92 62.78 40.78 61.12 40.92C59.7929 40.9046 58.4842 40.6081 57.28 40.05C57.28 40.05 60.55 47 67.48 47Z" fill="#FF002B"/>
<path d="M109.24 22.22L106.71 32.37C106.415 33.5249 105.703 34.5296 104.71 35.19L75.0101 55.65V64.43L73.0101 65.81L70.0101 63.41C69.7278 63.1802 69.374 63.0564 69.0101 63.06H65.8801C65.5164 63.0581 65.1632 63.1817 64.8801 63.41L61.8801 65.81L59.8801 64.43V55.65L30.1801 35.19C29.1903 34.5269 28.4786 33.5233 28.1801 32.37L25.6501 22.22H5.56006L11.5601 32.87C13.4844 36.2774 16.2356 39.1456 19.5601 41.21L52.5601 61.5V66.18L63.0501 74.71C63.6167 75.1658 64.3228 75.413 65.0501 75.41H69.8001C70.5273 75.413 71.2334 75.1658 71.8001 74.71L82.2901 66.18V61.5L115.29 41.21C118.615 39.1466 121.367 36.2782 123.29 32.87L129.29 22.22H109.24Z" fill="#FF002B"/>
</svg>
