<svg width="140" height="140" viewBox="0 0 140 140" fill="none" xmlns="http://www.w3.org/2000/svg">
<g clip-path="url(#clip0_211_95)">
<path d="M49.3428 101.311L49.5502 100.969C49.5502 101.041 49.4361 101.155 49.3428 101.311Z" fill="#FF002B"/>
<path d="M49.5811 100.906C49.5859 100.889 49.5859 100.871 49.5811 100.854V100.906Z" fill="#FF002B"/>
<path d="M90.7303 101.498C90.6961 101.433 90.658 101.371 90.6162 101.311L90.7303 101.498Z" fill="#FF002B"/>
<path d="M90.8551 101.664C90.8291 101.613 90.7978 101.564 90.7617 101.519L90.8551 101.664Z" fill="#FF002B"/>
<path d="M69.9792 50.794C62.7925 50.794 59.4014 43.5787 59.4014 43.5787C60.6467 44.1573 62.0004 44.4651 63.3732 44.4819C65.1051 44.3366 66.028 41.3674 69.9792 41.3674C73.9303 41.3674 74.8428 44.3366 76.5747 44.4819C77.9477 44.4667 79.3018 44.1589 80.5466 43.5787C80.5466 43.5787 77.1658 50.794 69.9792 50.794Z" fill="#FF002B"/>
<path d="M118.513 83.5168L119.55 76.6338C119.666 75.7995 120.052 75.0264 120.649 74.4329L126 69.1797C126 69.1797 128.074 67.2695 126.902 63.0857L114.458 73.7165C113.935 74.1687 113.605 74.8038 113.535 75.4918L112 90.2442L116.615 86.7559C117.629 85.978 118.299 84.8343 118.481 83.5687" fill="#FF002B"/>
<path d="M138.31 109.066L126.177 88.9363C126.177 88.9363 124.103 92.1961 124.103 93.089C124.103 93.8157 122.526 107.25 122.516 112.274C122.516 113.08 122.328 113.875 121.968 114.596C121.609 115.316 121.086 115.943 120.442 116.427L119.737 116.956C118.927 117.567 118.262 118.349 117.788 119.246C117.315 120.143 117.046 121.134 116.999 122.147L116.532 133.847L136.08 119.407C137.646 118.241 138.735 116.545 139.146 114.635C139.555 112.726 139.259 110.732 138.31 109.025" fill="#FF002B"/>
<path d="M3.87882 119.448L23.4166 133.847L22.9188 122.168C22.8744 121.154 22.6058 120.162 22.1324 119.264C21.6589 118.367 20.9924 117.586 20.1811 116.977L19.4759 116.448C18.8319 115.964 18.3092 115.337 17.9492 114.616C17.5892 113.896 17.4018 113.101 17.4018 112.295C17.4018 107.27 15.8048 93.826 15.8151 93.1097C15.8151 92.165 13.7411 88.957 13.7411 88.957L1.64919 109.066C0.700394 110.773 0.403436 112.767 0.813591 114.677C1.22375 116.587 2.31307 118.282 3.87882 119.448Z" fill="#FF002B"/>
<path d="M26.4028 75.4918C26.3327 74.8038 26.0025 74.1687 25.4798 73.7165L13.0872 63.0857C11.9465 67.2384 13.9998 69.1797 13.9998 69.1797L19.3405 74.4329C19.9425 75.024 20.3326 75.7977 20.4502 76.6338L21.4872 83.5168C21.6611 84.783 22.3285 85.9287 23.3435 86.704L27.9168 90.2442L26.4028 75.4918Z" fill="#FF002B"/>
<path d="M98.311 105.568L104.201 99.5048L107.312 69.4706C107.322 69.3811 107.298 69.2913 107.248 69.2169C107.197 69.1426 107.123 69.0883 107.035 69.0636C106.949 69.0389 106.857 69.0453 106.775 69.0818C106.693 69.1182 106.626 69.1823 106.586 69.2629L103.382 76.6547C102.671 78.3067 101.666 79.8157 100.416 81.1084L98.0413 83.5689L93.5198 80.9008L93.6132 80.8281C95.6043 79.0944 97.5021 75.6373 98.2176 74.1839C98.2489 74.1302 98.264 74.0686 98.2611 74.0064C98.2582 73.9444 98.2373 73.8844 98.2011 73.834C98.1649 73.7834 98.115 73.7445 98.0571 73.7219C97.9993 73.6992 97.9362 73.6938 97.8754 73.7063C95.8013 74.2046 91.3732 74.5784 90.388 75.0974C89.4028 75.6165 82.631 81.4199 80.868 83.1329C80.818 83.1777 80.7833 83.2371 80.7687 83.3027C80.7541 83.3683 80.7605 83.4368 80.7867 83.4986C80.813 83.5605 80.858 83.6125 80.9154 83.6475C80.9727 83.6824 81.0395 83.6985 81.1065 83.6935C82.7761 83.5585 86.4576 83.2367 89.1228 82.8318L91.4458 86.102L86.2606 90.3481L88.511 94.2932C88.511 94.2932 84.6013 94.4178 83.7821 94.044C82.9628 93.6703 73.1628 86.6003 73.1628 86.6003V90.3481C72.7547 90.7804 72.2628 91.1249 71.7172 91.3602C71.1715 91.5956 70.5836 91.717 69.9895 91.717C69.3953 91.717 68.8074 91.5956 68.2618 91.3602C67.7161 91.1249 67.2242 90.7804 66.8161 90.3481V86.6107C66.8161 86.6107 56.9954 93.6806 56.1865 94.0544C55.3776 94.4281 51.468 94.3036 51.468 94.3036L53.708 90.3585L48.5228 86.1124L50.7213 82.811H50.8458C53.5524 83.2367 58.1984 83.5585 60.2413 83.6831C60.3115 83.6895 60.3819 83.6728 60.4416 83.6353C60.5013 83.5979 60.5472 83.5417 60.5718 83.4757C60.5966 83.4095 60.599 83.3372 60.5786 83.2696C60.5583 83.202 60.5163 83.143 60.4591 83.1017C58.3021 81.3784 50.5554 75.5958 49.591 75.0871C48.6265 74.5784 44.188 74.1942 42.1036 73.6959C42.0429 73.6854 41.9805 73.692 41.9234 73.7149C41.8663 73.7379 41.8166 73.7763 41.78 73.8258C41.7435 73.8753 41.7214 73.9341 41.7162 73.9955C41.711 74.0569 41.7231 74.1186 41.751 74.1735C42.4769 75.5958 44.3747 79.084 46.3554 80.8177L46.6147 81.015L41.9376 83.5481L39.5524 81.0877C38.3027 79.7949 37.2978 78.286 36.5865 76.6339L33.3821 69.2422C33.3423 69.1615 33.2755 69.0975 33.1933 69.061C33.1112 69.0246 33.0189 69.0181 32.9325 69.0429C32.8461 69.0676 32.7712 69.1219 32.7207 69.1962C32.6701 69.2705 32.6473 69.3603 32.6562 69.4498L35.5391 97.3765C35.6819 98.7343 36.2731 100.006 37.2191 100.989L41.6473 105.547C42.2339 106.149 42.5615 106.958 42.5599 107.8V111.838L36.3999 108.931L36.9391 113.676C37.073 114.927 37.5149 116.126 38.225 117.164C44.7721 126.52 54.1981 133.473 65.0636 136.962C68.2598 137.969 71.6879 137.969 74.8843 136.962C85.7591 133.453 95.1883 126.477 101.733 117.102C102.439 116.06 102.88 114.863 103.019 113.613L103.548 108.869L97.3984 111.817V107.779C97.3966 106.937 97.7242 106.128 98.311 105.526M52.3287 118.607C52.0459 118.787 51.7199 118.887 51.385 118.898C49.4561 118.898 47.7761 115.088 47.7761 115.088V104.851C47.7767 104.579 47.8368 104.309 47.9524 104.062L49.0621 101.716C49.145 101.507 49.2875 101.326 49.4718 101.197C49.6561 101.068 49.8742 100.996 50.0991 100.989C50.4014 100.993 50.7 101.057 50.9778 101.177C51.2555 101.296 51.507 101.469 51.7179 101.686C51.9289 101.903 52.095 102.16 52.2069 102.441C52.3188 102.722 52.3743 103.023 52.3702 103.325L52.3287 118.607ZM76.8961 125.054C76.8961 125.054 73.6813 130.889 69.9791 130.889C66.2769 130.889 63.0517 125.054 63.0517 125.054V109.45C63.051 109.026 63.1658 108.609 63.3836 108.246L65.4576 104.654C65.6557 104.321 65.9364 104.044 66.2725 103.852C66.6086 103.659 66.9887 103.556 67.3761 103.554H72.468C72.856 103.553 73.2373 103.655 73.5739 103.848C73.9105 104.041 74.1907 104.319 74.3865 104.654L76.5228 108.246C76.7327 108.613 76.8436 109.028 76.8443 109.45L76.8961 125.054ZM92.1717 115.088C92.1717 115.088 90.4917 118.898 88.5628 118.898C88.2281 118.886 87.9025 118.786 87.6191 118.607V103.367C87.615 103.064 87.6704 102.764 87.7823 102.482C87.8942 102.201 88.0604 101.945 88.2713 101.728C88.4822 101.511 88.7337 101.338 89.0114 101.218C89.2893 101.099 89.5878 101.035 89.8902 101.031C90.115 101.037 90.3331 101.11 90.5174 101.239C90.7018 101.368 90.8442 101.548 90.9273 101.758L92.0473 104.104C92.1535 104.353 92.2099 104.621 92.2132 104.893L92.1717 115.088Z" fill="#FF002B"/>
<path d="M77.0414 28.7951C77.0235 28.7172 76.9992 28.6408 76.9689 28.5667L76.6888 27.5286L69.9792 2.23877L63.9333 24.9954L63.1659 27.9023L62.9792 28.5979C62.8947 28.8099 62.8457 29.0343 62.834 29.2623C62.8061 29.7139 62.9262 30.1623 63.1763 30.5392C63.3012 30.7316 63.4592 30.9003 63.6429 31.0376L65.0014 32.0757L69.9792 25.5976L74.957 32.0757L76.3155 31.0376C76.408 30.9725 76.4917 30.8958 76.5644 30.8092C76.6424 30.7263 76.7119 30.6359 76.7718 30.5392C77.0218 30.1623 77.142 29.7139 77.114 29.2623C77.1101 29.1143 77.0857 28.9676 77.0414 28.8263" fill="#FF002B"/>
<path d="M69.9792 50.794C77.1658 50.794 80.5466 43.5787 80.5466 43.5787C79.3018 44.1589 77.9477 44.4667 76.5747 44.4819C74.8428 44.3366 73.9199 41.3674 69.9792 41.3674C66.0384 41.3674 65.1051 44.3366 63.3836 44.4819C62.0073 44.4659 60.6502 44.1581 59.4014 43.5787C59.4014 43.5787 62.7925 50.794 69.9792 50.794Z" fill="#FF002B"/>
<path d="M113.286 25.0681L110.662 35.6055C110.356 36.8045 109.618 37.8475 108.588 38.5332L77.7879 59.7741V68.8892L75.7138 70.3219L72.6027 67.8303C72.31 67.5917 71.9431 67.4632 71.5657 67.4669H68.3197C67.9426 67.4649 67.5763 67.5932 67.2827 67.8303L64.1716 70.3219L62.0975 68.8892V59.7741L31.2975 38.5332C30.2711 37.8447 29.533 36.8028 29.2234 35.6055L26.5997 25.0681H5.76562L11.9879 36.1246C13.9835 39.6621 16.8366 42.6397 20.2842 44.7829L54.5064 65.8474V70.706L65.3849 79.5615C65.9725 80.0347 66.7048 80.2914 67.459 80.2883H72.3849C73.1391 80.2914 73.8713 80.0347 74.459 79.5615L85.3375 70.706V65.8474L119.56 44.7829C123.008 42.6408 125.862 39.6629 127.856 36.1246L134.078 25.0681H113.286Z" fill="#FF002B"/>
</g>
<defs>
<clipPath id="clip0_211_95">
<rect width="140" height="136" fill="white" transform="translate(0 2)"/>
</clipPath>
</defs>
</svg>
