<svg width="308" height="308" viewBox="0 0 308 308" fill="none" xmlns="http://www.w3.org/2000/svg">
<g filter="url(#filter0_d_102_2502)">
<rect x="14" y="11" width="274" height="274" rx="60" fill="#7D5FBE"/>
<rect x="14" y="11" width="274" height="274" rx="60" fill="url(#paint0_linear_102_2502)"/>
<circle cx="151" cy="148" r="118" fill="white"/>
</g>
<circle cx="151" cy="148" r="90.5" fill="#375BD2" stroke="white"/>
<path d="M149.927 115.491L178.079 131.651V164.132L150.006 180.391L121.874 164.271V131.81L149.927 115.491ZM149.927 91.6667L139.603 97.6227L111.491 113.942L101.167 119.898V176.222L111.491 182.178L139.643 198.339L149.966 204.295L160.29 198.339L188.343 182.059L198.667 176.103V119.7L188.343 113.744L160.211 97.6227L149.887 91.6667H149.927Z" fill="white"/>
<defs>
<filter id="filter0_d_102_2502" x="0" y="0" width="308" height="308" filterUnits="userSpaceOnUse" color-interpolation-filters="sRGB">
<feFlood flood-opacity="0" result="BackgroundImageFix"/>
<feColorMatrix in="SourceAlpha" type="matrix" values="0 0 0 0 0 0 0 0 0 0 0 0 0 0 0 0 0 0 127 0" result="hardAlpha"/>
<feOffset dx="3" dy="6"/>
<feGaussianBlur stdDeviation="8.5"/>
<feComposite in2="hardAlpha" operator="out"/>
<feColorMatrix type="matrix" values="0 0 0 0 0 0 0 0 0 0 0 0 0 0 0 0 0 0 0.25 0"/>
<feBlend mode="normal" in2="BackgroundImageFix" result="effect1_dropShadow_102_2502"/>
<feBlend mode="normal" in="SourceGraphic" in2="effect1_dropShadow_102_2502" result="shape"/>
</filter>
<linearGradient id="paint0_linear_102_2502" x1="-99.5" y1="302" x2="242.5" y2="79" gradientUnits="userSpaceOnUse">
<stop stop-color="#2A0084"/>
<stop offset="1" stop-color="#7D5FBE" stop-opacity="0"/>
</linearGradient>
</defs>
</svg>
