<svg width="308" height="308" viewBox="0 0 308 308" fill="none" xmlns="http://www.w3.org/2000/svg">
<g filter="url(#filter0_d_106_61)">
<rect x="14" y="11" width="274" height="274" rx="60" fill="#7D5FBE"/>
<rect x="14" y="11" width="274" height="274" rx="60" fill="url(#paint0_linear_106_61)"/>
<circle cx="151" cy="148" r="118" fill="white"/>
</g>
<circle cx="151" cy="148" r="92" fill="black"/>
<path d="M196.211 102.438C196.211 89.8565 186.012 79.6571 173.43 79.6571H151V125.219H173.43C186.012 125.219 196.211 115.02 196.211 102.438V102.438Z" fill="#FF7262"/>
<path d="M151 148C151 135.515 161.121 125.219 173.606 125.219V125.219C186.091 125.219 196.211 135.515 196.211 148V148C196.211 160.485 186.091 170.781 173.606 170.781V170.781C161.121 170.781 151 160.485 151 148V148Z" fill="#1ABCFE"/>
<path d="M105.789 148C105.789 135.418 115.988 125.219 128.57 125.219H151V170.781H128.57C115.988 170.781 105.789 160.582 105.789 148V148Z" fill="#A259FF"/>
<path d="M105.789 102.438C105.789 89.8565 115.988 79.6571 128.57 79.6571H151V125.219H128.57C115.988 125.219 105.789 115.02 105.789 102.438V102.438Z" fill="#F24E1E"/>
<path d="M105.789 193.65C105.789 181.068 115.988 170.781 128.57 170.781H151V193.737C151 206.222 140.879 216.343 128.394 216.343V216.343C115.909 216.343 105.789 206.135 105.789 193.65V193.65Z" fill="#0ACF83"/>
<defs>
<filter id="filter0_d_106_61" x="0" y="0" width="308" height="308" filterUnits="userSpaceOnUse" color-interpolation-filters="sRGB">
<feFlood flood-opacity="0" result="BackgroundImageFix"/>
<feColorMatrix in="SourceAlpha" type="matrix" values="0 0 0 0 0 0 0 0 0 0 0 0 0 0 0 0 0 0 127 0" result="hardAlpha"/>
<feOffset dx="3" dy="6"/>
<feGaussianBlur stdDeviation="8.5"/>
<feComposite in2="hardAlpha" operator="out"/>
<feColorMatrix type="matrix" values="0 0 0 0 0 0 0 0 0 0 0 0 0 0 0 0 0 0 0.25 0"/>
<feBlend mode="normal" in2="BackgroundImageFix" result="effect1_dropShadow_106_61"/>
<feBlend mode="normal" in="SourceGraphic" in2="effect1_dropShadow_106_61" result="shape"/>
</filter>
<linearGradient id="paint0_linear_106_61" x1="-99.5" y1="302" x2="242.5" y2="79" gradientUnits="userSpaceOnUse">
<stop stop-color="#2A0084"/>
<stop offset="1" stop-color="#7D5FBE" stop-opacity="0"/>
</linearGradient>
</defs>
</svg>
