<svg width="308" height="308" viewBox="0 0 308 308" fill="none" xmlns="http://www.w3.org/2000/svg">
<g filter="url(#filter0_d_229_233)">
<rect x="14" y="11" width="274" height="274" rx="60" fill="#7D5FBE"/>
<rect x="14" y="11" width="274" height="274" rx="60" fill="url(#paint0_linear_229_233)"/>
<circle cx="151" cy="148" r="118" fill="white"/>
</g>
<mask id="mask0_229_233" style="mask-type:luminance" maskUnits="userSpaceOnUse" x="83" y="53" width="136" height="190">
<path d="M83.2002 53.5H218.95V242.5H83.2002V53.5Z" fill="white"/>
</mask>
<g mask="url(#mask0_229_233)">
<path fill-rule="evenodd" clip-rule="evenodd" d="M86.6504 155.05C86.9504 160.3 92.2004 157.9 94.6004 156.25C96.8504 154.6 97.6004 155.95 97.7504 152.8C97.9004 150.7 98.0504 148.75 98.0504 146.65C94.6004 146.35 90.8504 147.1 88.0004 149.2C86.6504 150.25 83.8004 153.7 86.6504 155.05Z" fill="#F6D2A2"/>
</g>
<mask id="mask1_229_233" style="mask-type:luminance" maskUnits="userSpaceOnUse" x="83" y="53" width="136" height="190">
<path d="M83.2002 53.5H218.95V242.5H83.2002V53.5Z" fill="white"/>
</mask>
<g mask="url(#mask1_229_233)">
<path d="M89.5004 158.8C88.4504 158.8 86.5004 158.35 86.2004 155.35C85.3004 154.75 85.0004 154 85.0004 153.55C84.8504 151.75 86.8004 149.65 87.8504 148.9C90.2504 147.1 93.4004 146.2 96.7004 146.2H98.6504V146.65C98.8004 148.3 98.6504 149.95 98.5004 151.45C98.5004 151.9 98.5004 152.35 98.3504 152.8C98.2004 155.05 97.7504 155.35 96.7004 155.8C96.2504 155.95 95.8004 156.1 95.0504 156.7C94.3004 157.15 91.7504 158.8 89.5004 158.8ZM96.7004 147.1C93.5504 147.1 90.7004 148 88.4504 149.65C87.4004 150.4 85.9004 152.2 86.0504 153.4C86.0504 153.85 86.3504 154.3 86.9504 154.6L87.2504 154.75V155.05C87.4004 157.45 88.6004 157.75 89.5004 157.75C91.0004 157.75 93.1004 156.7 94.4504 155.8C95.3504 155.2 95.9504 155.05 96.4004 154.9C97.1504 154.6 97.3004 154.6 97.4504 152.8C97.4504 152.35 97.4504 151.9 97.6004 151.45C97.7504 150.1 97.7504 148.6 97.7504 147.25C97.3004 147.1 97.0004 147.1 96.7004 147.1Z" fill="black"/>
</g>
<mask id="mask2_229_233" style="mask-type:luminance" maskUnits="userSpaceOnUse" x="83" y="53" width="136" height="190">
<path d="M83.2002 53.5H218.95V242.5H83.2002V53.5Z" fill="white"/>
</mask>
<g mask="url(#mask2_229_233)">
<path fill-rule="evenodd" clip-rule="evenodd" d="M86.6504 155.05C87.4004 154.75 88.3004 154.6 88.7504 153.85Z" fill="#C6B198"/>
</g>
<mask id="mask3_229_233" style="mask-type:luminance" maskUnits="userSpaceOnUse" x="83" y="53" width="136" height="190">
<path d="M83.2002 53.5H218.95V242.5H83.2002V53.5Z" fill="white"/>
</mask>
<g mask="url(#mask3_229_233)">
<path d="M86.65 155.5C86.5 155.5 86.2 155.35 86.2 155.2C86.05 154.9 86.2 154.6 86.5 154.6C86.65 154.6 86.8 154.45 86.8 154.45C87.4 154.15 88 154 88.3 153.55C88.45 153.4 88.75 153.25 89.05 153.4C89.2 153.55 89.35 153.85 89.2 154.15C88.6 154.9 87.85 155.2 87.25 155.35L86.95 155.5H86.65Z" fill="black"/>
</g>
<mask id="mask4_229_233" style="mask-type:luminance" maskUnits="userSpaceOnUse" x="83" y="53" width="136" height="190">
<path d="M83.2002 53.5H218.95V242.5H83.2002V53.5Z" fill="white"/>
</mask>
<g mask="url(#mask4_229_233)">
<path fill-rule="evenodd" clip-rule="evenodd" d="M98.9502 91.6C78.5502 85.9 93.7002 59.95 110.05 70.6L98.9502 91.6Z" fill="#6AD7E5"/>
</g>
<mask id="mask5_229_233" style="mask-type:luminance" maskUnits="userSpaceOnUse" x="83" y="53" width="136" height="190">
<path d="M83.2002 53.5H218.95V242.5H83.2002V53.5Z" fill="white"/>
</mask>
<g mask="url(#mask5_229_233)">
<path d="M99.2502 92.2L98.8002 92.05C88.3002 89.05 88.4502 81.55 88.7502 79.3C89.5002 73.6 94.9002 67.6 102.1 67.6C104.95 67.6 107.65 68.5 110.35 70.3L110.8 70.6L99.2502 92.2ZM102.1 68.65C95.3502 68.65 90.4002 74.2 89.6502 79.45C88.9002 84.85 92.2002 89.05 98.6502 91L109.3 70.75C107.05 69.4 104.65 68.65 102.1 68.65Z" fill="black"/>
</g>
<mask id="mask6_229_233" style="mask-type:luminance" maskUnits="userSpaceOnUse" x="83" y="53" width="136" height="190">
<path d="M83.2002 53.5H218.95V242.5H83.2002V53.5Z" fill="white"/>
</mask>
<g mask="url(#mask6_229_233)">
<path fill-rule="evenodd" clip-rule="evenodd" d="M189.4 68.65C205.45 57.4 220.15 82.9 201.4 89.35L189.4 68.65Z" fill="#6AD7E5"/>
</g>
<mask id="mask7_229_233" style="mask-type:luminance" maskUnits="userSpaceOnUse" x="83" y="53" width="136" height="190">
<path d="M83.2002 53.5H218.95V242.5H83.2002V53.5Z" fill="white"/>
</mask>
<g mask="url(#mask7_229_233)">
<path d="M201.25 89.95L188.8 68.5L189.25 68.2C192.1 66.25 194.95 65.2 197.8 65.2C204.7 65.2 209.65 70.9 210.7 76.45C211.15 78.7 211.6 86.35 201.7 89.65L201.25 89.95ZM190.15 68.95L201.7 88.9C207.55 86.8 210.55 82.3 209.65 76.9C208.75 71.8 204.1 66.55 197.8 66.55C195.25 66.4 192.7 67.15 190.15 68.95Z" fill="black"/>
</g>
<mask id="mask8_229_233" style="mask-type:luminance" maskUnits="userSpaceOnUse" x="83" y="53" width="136" height="190">
<path d="M83.2002 53.5H218.95V242.5H83.2002V53.5Z" fill="white"/>
</mask>
<g mask="url(#mask8_229_233)">
<path fill-rule="evenodd" clip-rule="evenodd" d="M193 220.45C197.05 223 204.55 230.65 198.4 234.4C192.55 239.8 189.25 228.4 184 226.9C186.25 223.9 189.1 221.05 193 220.45Z" fill="#F6D2A2"/>
</g>
<mask id="mask9_229_233" style="mask-type:luminance" maskUnits="userSpaceOnUse" x="83" y="53" width="136" height="190">
<path d="M83.2002 53.5H218.95V242.5H83.2002V53.5Z" fill="white"/>
</mask>
<g mask="url(#mask9_229_233)">
<path d="M195.25 236.35C192.85 236.35 190.75 233.95 188.95 231.7C187.3 229.9 185.65 227.95 183.85 227.35L183.1 227.2L183.55 226.6C185.35 224.05 188.35 220.75 192.85 220H193L193.15 220.15C195.7 221.8 201.25 226.45 201.1 230.8C201.1 232.45 200.2 233.8 198.55 234.85C197.5 235.9 196.45 236.35 195.25 236.35ZM184.75 226.6C186.55 227.35 188.05 229.3 189.55 230.95C191.35 233.2 193.15 235.15 195.1 235.15C196 235.15 196.9 234.7 197.8 233.8H197.95C199.3 232.9 200.05 231.85 200.05 230.5C200.05 227.05 195.7 222.7 192.7 220.75C190 221.5 187.3 223.3 184.75 226.6ZM198.4 234.85C198.25 234.85 198.1 234.7 197.95 234.55C197.65 233.95 197.35 233.2 197.2 232.6C196.75 231.4 196.3 230.2 195.4 229.3C195.25 229.15 195.25 228.85 195.4 228.55C195.55 228.4 195.85 228.4 196.15 228.55C197.2 229.6 197.8 230.95 198.25 232.3L199 234.1C199.15 234.4 199 234.7 198.85 234.85H198.4Z" fill="black"/>
</g>
<mask id="mask10_229_233" style="mask-type:luminance" maskUnits="userSpaceOnUse" x="83" y="53" width="136" height="190">
<path d="M83.2002 53.5H218.95V242.5H83.2002V53.5Z" fill="white"/>
</mask>
<g mask="url(#mask10_229_233)">
<path fill-rule="evenodd" clip-rule="evenodd" d="M119.8 229.15C115 229.9 112.3 234.25 108.25 236.5C104.5 238.75 103 235.75 102.7 235.15C102.1 234.85 102.1 235.45 101.2 234.55C97.75 229 104.8 224.95 108.55 222.25C113.8 221.05 117.1 225.55 119.8 229.15Z" fill="#F6D2A2"/>
</g>
<mask id="mask11_229_233" style="mask-type:luminance" maskUnits="userSpaceOnUse" x="83" y="53" width="136" height="190">
<path d="M83.2002 53.5H218.95V242.5H83.2002V53.5Z" fill="white"/>
</mask>
<g mask="url(#mask11_229_233)">
<path d="M105.7 237.7C103.75 237.7 102.7 236.05 102.4 235.45H102.25C101.8 235.45 101.5 235.3 100.9 234.7V234.55C97.6004 229.3 103.3 225.25 107.05 222.55L108.4 221.65H108.7C109.3 221.5 109.75 221.5 110.35 221.5C114.85 221.5 117.7 225.4 120.1 228.55L120.85 229.6L119.95 229.75C117.1 230.2 115 232 112.9 233.8C111.55 235 110.2 236.05 108.7 236.95C107.5 237.4 106.6 237.7 105.7 237.7ZM102.4 234.55C102.55 234.55 102.7 234.55 103 234.7H103.15L103.3 234.85C103.6 235.3 104.35 236.65 105.85 236.65C106.6 236.65 107.35 236.35 108.1 235.9C109.6 235.15 110.95 233.95 112.15 232.9C114.1 231.25 116.2 229.45 118.9 228.7C116.65 225.7 113.95 222.4 110.2 222.4C109.75 222.4 109.3 222.4 108.85 222.55L107.65 223.45C103.75 226.15 98.9504 229.6 101.8 234.1C101.95 234.4 102.1 234.55 102.4 234.55ZM102.7 235.6C102.4 235.6 102.1 235.3 102.25 235C102.4 233.5 103.15 232.45 103.9 231.25C104.35 230.65 104.65 230.05 104.95 229.45C105.1 229.15 105.4 229.15 105.55 229.15C105.85 229.3 105.85 229.6 105.85 229.75C105.55 230.5 105.1 231.1 104.65 231.7C103.9 232.75 103.3 233.65 103.15 234.85C103.15 235.45 103 235.6 102.7 235.6Z" fill="black"/>
</g>
<mask id="mask12_229_233" style="mask-type:luminance" maskUnits="userSpaceOnUse" x="83" y="53" width="136" height="190">
<path d="M83.2002 53.5H218.95V242.5H83.2002V53.5Z" fill="white"/>
</mask>
<g mask="url(#mask12_229_233)">
<path fill-rule="evenodd" clip-rule="evenodd" d="M99.8504 84.55C97.1504 83.2 95.2004 81.25 96.8504 78.1C98.3504 75.25 101.2 75.55 103.9 76.9L99.8504 84.55ZM197.2 81.85C199.9 80.5 201.85 78.55 200.2 75.4C198.7 72.55 195.85 72.85 193.15 74.2L197.2 81.85Z" fill="black"/>
</g>
<mask id="mask13_229_233" style="mask-type:luminance" maskUnits="userSpaceOnUse" x="83" y="53" width="136" height="190">
<path d="M83.2002 53.5H218.95V242.5H83.2002V53.5Z" fill="white"/>
</mask>
<g mask="url(#mask13_229_233)">
<path fill-rule="evenodd" clip-rule="evenodd" d="M215.65 154.3C215.35 159.55 210.1 157.15 207.7 155.5C205.45 153.85 204.7 155.2 204.55 152.05C204.4 149.95 204.25 148 204.25 145.9C207.7 145.6 211.45 146.35 214.3 148.45C215.8 149.65 218.5 152.95 215.65 154.3Z" fill="#F6D2A2"/>
</g>
<mask id="mask14_229_233" style="mask-type:luminance" maskUnits="userSpaceOnUse" x="83" y="53" width="136" height="190">
<path d="M83.2002 53.5H218.95V242.5H83.2002V53.5Z" fill="white"/>
</mask>
<g mask="url(#mask14_229_233)">
<path d="M212.95 158.05C210.7 158.05 208.15 156.4 207.4 155.95C206.65 155.5 206.2 155.2 205.75 155.05C204.55 154.6 204.25 154.3 204.1 152.05C204.1 151.6 204.1 151.15 203.95 150.7C203.8 149.2 203.65 147.55 203.8 145.9V145.45H205.75C209.05 145.45 212.2 146.35 214.6 148.15C215.65 148.9 217.6 151 217.45 152.8C217.45 153.4 217.15 154.15 216.25 154.6C215.95 157.6 214 158.05 212.95 158.05ZM204.7 146.5C204.7 147.85 204.7 149.35 204.85 150.7C204.85 151.15 204.85 151.6 205 152.05C205.15 153.85 205.3 153.85 206.05 154.15C206.5 154.3 207.1 154.6 208 155.05C209.35 155.95 211.45 157 212.95 157C213.85 157 215.05 156.7 215.2 154.3V154L215.5 153.85C216.1 153.55 216.4 153.25 216.4 152.65C216.55 151.45 215.05 149.65 214 148.9C211.75 147.25 208.75 146.35 205.75 146.35C205.45 146.5 205.15 146.5 204.7 146.5Z" fill="black"/>
</g>
<mask id="mask15_229_233" style="mask-type:luminance" maskUnits="userSpaceOnUse" x="83" y="53" width="136" height="190">
<path d="M83.2002 53.5H218.95V242.5H83.2002V53.5Z" fill="white"/>
</mask>
<g mask="url(#mask15_229_233)">
<path fill-rule="evenodd" clip-rule="evenodd" d="M215.65 154.3C214.9 154 214 153.85 213.55 153.1Z" fill="#C6B198"/>
</g>
<mask id="mask16_229_233" style="mask-type:luminance" maskUnits="userSpaceOnUse" x="83" y="53" width="136" height="190">
<path d="M83.2002 53.5H218.95V242.5H83.2002V53.5Z" fill="white"/>
</mask>
<g mask="url(#mask16_229_233)">
<path d="M215.65 154.9H215.5L215.2 154.75C214.45 154.45 213.7 154.3 213.25 153.55C213.1 153.4 213.1 152.95 213.4 152.8C213.55 152.65 214 152.65 214.15 152.95C214.45 153.4 215.05 153.55 215.65 153.85C215.8 153.85 215.95 154 215.95 154C216.25 154.15 216.4 154.45 216.25 154.6C216.1 154.75 215.8 154.9 215.65 154.9Z" fill="black"/>
</g>
<mask id="mask17_229_233" style="mask-type:luminance" maskUnits="userSpaceOnUse" x="83" y="53" width="136" height="190">
<path d="M83.2002 53.5H218.95V242.5H83.2002V53.5Z" fill="white"/>
</mask>
<g mask="url(#mask17_229_233)">
<path fill-rule="evenodd" clip-rule="evenodd" d="M149.2 58C169.6 58 188.65 60.85 198.7 80.5C207.7 102.4 204.4 126.1 205.9 149.35C207.1 169.3 209.65 192.25 200.5 210.7C190.75 230.05 166.45 235 146.5 234.25C130.75 233.65 111.85 228.55 102.85 214.15C92.5003 197.35 97.3003 172.3 98.0503 153.55C98.9503 131.35 92.0503 109 99.4003 87.4C106.75 64.75 127.15 59.65 149.2 58Z" fill="#6AD7E5"/>
</g>
<mask id="mask18_229_233" style="mask-type:luminance" maskUnits="userSpaceOnUse" x="83" y="53" width="136" height="190">
<path d="M83.2002 53.5H218.95V242.5H83.2002V53.5Z" fill="white"/>
</mask>
<g mask="url(#mask18_229_233)">
<path d="M149.95 234.85H146.2C140.05 234.7 130.75 233.65 121.6 229.9C112.75 226.3 106.3 221.2 102.1 214.45C93.7001 200.8 95.2001 182.05 96.5501 165.4C96.8501 161.2 97.1501 157.3 97.3001 153.55C97.6001 145.75 97.0001 137.65 96.2501 130C95.0501 115.9 93.8501 101.35 98.5001 87.25C102.1 76.75 108.55 69.25 118.3 64.45C125.95 60.7 135.4 58.6 148.9 57.55C169 57.4 188.95 60.25 199 80.2C205.6 96.25 205.6 113.5 205.75 130.15C205.75 136.45 205.75 142.9 206.2 149.2C206.35 151.15 206.5 153.1 206.5 155.05C207.7 173.35 209.05 194.05 200.65 210.85C196.45 219.4 189.1 225.7 179.05 229.75C170.95 233.05 160.75 234.85 149.95 234.85ZM149.2 58.45C128.05 60.1 107.35 64.75 99.7001 87.55C95.0501 101.5 96.2501 115.9 97.4501 129.85C98.0501 137.65 98.8001 145.6 98.5001 153.55C98.3501 157.3 98.0501 161.2 97.7501 165.4C96.4001 181.9 94.9001 200.5 103.15 213.85C106.6 219.4 117.7 232.6 146.35 233.65H150.1C183.25 233.65 195.55 218.95 200.05 210.25C208.3 193.75 206.95 173.05 205.9 154.9C205.75 152.95 205.6 151 205.6 149.05C205.3 142.75 205.15 136.3 205.15 130C205 113.5 205 96.25 198.55 80.35C194.05 71.5 187.3 65.5 178 62.05C168.4 58.9 157.6 58.45 149.2 58.45Z" fill="black"/>
</g>
<mask id="mask19_229_233" style="mask-type:luminance" maskUnits="userSpaceOnUse" x="83" y="53" width="136" height="190">
<path d="M83.2002 53.5H218.95V242.5H83.2002V53.5Z" fill="white"/>
</mask>
<g mask="url(#mask19_229_233)">
<path fill-rule="evenodd" clip-rule="evenodd" d="M152.8 85.3C156.4 106.6 191.2 100.9 186.25 79.45C181.75 60.25 151.6 65.65 152.8 85.3Z" fill="white"/>
</g>
<mask id="mask20_229_233" style="mask-type:luminance" maskUnits="userSpaceOnUse" x="83" y="53" width="136" height="190">
<path d="M83.2002 53.5H218.95V242.5H83.2002V53.5Z" fill="white"/>
</mask>
<g mask="url(#mask20_229_233)">
<path d="M169.3 99.25C162.55 99.25 154 95.65 152.2 85.45C151.9 80.65 153.4 76.3 156.55 73C160 69.25 165.25 67.15 170.65 67.15C176.95 67.15 184.45 70.45 186.55 79.6C187.75 84.7 186.85 89.2 184 92.8C180.85 96.7 175.3 99.25 169.3 99.25ZM153.25 85.3C154 89.5 155.95 92.8 159.1 95.2C161.8 97.3 165.55 98.35 169.3 98.35C174.85 98.35 180.25 95.95 183.25 92.2C185.95 88.9 186.7 84.55 185.65 79.75C183.7 71.2 176.65 68.2 170.65 68.2C165.55 68.2 160.6 70.3 157.3 73.75C154.45 76.75 152.95 80.8 153.25 85.3Z" fill="black"/>
</g>
<mask id="mask21_229_233" style="mask-type:luminance" maskUnits="userSpaceOnUse" x="83" y="53" width="136" height="190">
<path d="M83.2002 53.5H218.95V242.5H83.2002V53.5Z" fill="white"/>
</mask>
<g mask="url(#mask21_229_233)">
<path fill-rule="evenodd" clip-rule="evenodd" d="M111.25 88.75C116.05 107.2 145.6 102.55 144.55 83.95C143.2 61.75 106.6 65.95 111.25 88.75Z" fill="white"/>
</g>
<mask id="mask22_229_233" style="mask-type:luminance" maskUnits="userSpaceOnUse" x="83" y="53" width="136" height="190">
<path d="M83.2002 53.5H218.95V242.5H83.2002V53.5Z" fill="white"/>
</mask>
<g mask="url(#mask22_229_233)">
<path d="M127 101.05C120.55 101.05 113.05 97.9 110.65 88.9C109.6 83.65 110.65 78.85 113.65 75.25C116.95 71.2 122.35 68.8 128.2 68.8C136 68.8 144.25 73.45 144.85 83.95C145.15 88.3 143.8 92.2 140.8 95.35C137.65 98.8 132.4 101.05 127 101.05ZM128.2 69.85C122.65 69.85 117.55 72.1 114.4 75.85C111.55 79.3 110.65 83.65 111.7 88.6C113.8 97 121 100 127 100C132.1 100 137.05 98.05 140.2 94.6C142.9 91.75 144.25 88 143.95 83.95C143.65 77.5 139.3 69.85 128.2 69.85Z" fill="black"/>
</g>
<mask id="mask23_229_233" style="mask-type:luminance" maskUnits="userSpaceOnUse" x="83" y="53" width="136" height="190">
<path d="M83.2002 53.5H218.95V242.5H83.2002V53.5Z" fill="white"/>
</mask>
<g mask="url(#mask23_229_233)">
<path fill-rule="evenodd" clip-rule="evenodd" d="M157 110.8C157 113.5 157.6 116.65 157.15 119.65C156.4 121 155.05 121.15 153.85 121.6C152.2 121.3 150.85 120.25 150.1 118.75C149.65 115.45 150.25 112.15 150.4 108.85L157 110.8Z" fill="white"/>
</g>
<mask id="mask24_229_233" style="mask-type:luminance" maskUnits="userSpaceOnUse" x="83" y="53" width="136" height="190">
<path d="M83.2002 53.5H218.95V242.5H83.2002V53.5Z" fill="white"/>
</mask>
<g mask="url(#mask24_229_233)">
<path d="M153.85 122.2C151.9 121.9 150.4 120.7 149.65 119.05C149.35 116.65 149.5 114.4 149.65 112.15C149.8 111.1 149.8 110.05 149.8 109V108.4L157.45 110.8V111.1C157.45 112 157.6 112.9 157.6 113.95C157.75 115.9 157.9 118 157.6 119.95V120.1C157 121.3 155.95 121.6 154.9 122.05C154.6 121.9 154.3 122.05 153.85 122.2ZM150.55 118.6C151.15 119.95 152.35 120.85 153.7 121.15C154 121 154.3 121 154.45 120.85C155.35 120.55 156.1 120.25 156.55 119.5C156.85 117.7 156.7 115.75 156.55 113.8C156.55 112.9 156.4 112 156.4 111.25L150.7 109.45C150.7 110.35 150.55 111.25 150.55 112C150.4 114.4 150.25 116.5 150.55 118.6Z" fill="black"/>
</g>
<mask id="mask25_229_233" style="mask-type:luminance" maskUnits="userSpaceOnUse" x="83" y="53" width="136" height="190">
<path d="M83.2002 53.5H218.95V242.5H83.2002V53.5Z" fill="white"/>
</mask>
<g mask="url(#mask25_229_233)">
<path fill-rule="evenodd" clip-rule="evenodd" d="M124.45 85.75C124.45 88.75 122.2 91.15 119.5 91.15C116.8 91.15 114.55 88.75 114.55 85.75C114.55 82.75 116.8 80.35 119.5 80.35C122.2 80.35 124.45 82.75 124.45 85.75Z" fill="black"/>
</g>
<mask id="mask26_229_233" style="mask-type:luminance" maskUnits="userSpaceOnUse" x="83" y="53" width="136" height="190">
<path d="M83.2002 53.5H218.95V242.5H83.2002V53.5Z" fill="white"/>
</mask>
<g mask="url(#mask26_229_233)">
<path fill-rule="evenodd" clip-rule="evenodd" d="M122.8 86.95C122.8 87.7 122.2 88.3 121.6 88.3C121 88.3 120.4 87.7 120.4 86.95C120.4 86.2 121 85.6 121.6 85.6C122.35 85.6 122.8 86.2 122.8 86.95Z" fill="white"/>
</g>
<mask id="mask27_229_233" style="mask-type:luminance" maskUnits="userSpaceOnUse" x="83" y="53" width="136" height="190">
<path d="M83.2002 53.5H218.95V242.5H83.2002V53.5Z" fill="white"/>
</mask>
<g mask="url(#mask27_229_233)">
<path fill-rule="evenodd" clip-rule="evenodd" d="M166.3 84.4C166.3 87.4 164.05 89.8 161.35 89.8C158.65 89.8 156.4 87.4 156.4 84.4C156.4 81.4 158.65 79 161.35 79C164.05 79 166.3 81.4 166.3 84.4Z" fill="black"/>
</g>
<mask id="mask28_229_233" style="mask-type:luminance" maskUnits="userSpaceOnUse" x="83" y="53" width="136" height="190">
<path d="M83.2002 53.5H218.95V242.5H83.2002V53.5Z" fill="white"/>
</mask>
<g mask="url(#mask28_229_233)">
<path fill-rule="evenodd" clip-rule="evenodd" d="M164.8 85.6C164.8 86.35 164.35 86.95 163.6 86.95C163 86.95 162.4 86.35 162.4 85.6C162.4 84.85 162.85 84.25 163.6 84.25C164.2 84.25 164.8 84.85 164.8 85.6ZM142.6 110.5C140.35 115.75 143.8 126.4 149.8 118.6C149.35 115.3 149.95 112 150.1 108.7L142.6 110.5Z" fill="white"/>
</g>
<mask id="mask29_229_233" style="mask-type:luminance" maskUnits="userSpaceOnUse" x="83" y="53" width="136" height="190">
<path d="M83.2002 53.5H218.95V242.5H83.2002V53.5Z" fill="white"/>
</mask>
<g mask="url(#mask29_229_233)">
<path d="M145.75 121.9C144.7 121.9 143.65 121.3 142.9 120.1C141.25 117.7 140.95 113.2 142.15 110.35L142.3 110.05L150.55 107.95V108.55L150.4 111.85C150.25 114.1 150.1 116.2 150.4 118.45V118.6L150.25 118.75C148.75 120.85 147.25 121.9 145.75 121.9ZM143.05 110.95C142.15 113.5 142.45 117.55 143.8 119.5C144.4 120.4 145 120.85 145.75 120.85C146.8 120.85 148 119.95 149.2 118.45C148.9 116.2 149.05 113.95 149.35 111.85L149.5 109.3L143.05 110.95Z" fill="black"/>
</g>
<mask id="mask30_229_233" style="mask-type:luminance" maskUnits="userSpaceOnUse" x="83" y="53" width="136" height="190">
<path d="M83.2002 53.5H218.95V242.5H83.2002V53.5Z" fill="white"/>
</mask>
<g mask="url(#mask30_229_233)">
<path fill-rule="evenodd" clip-rule="evenodd" d="M143.35 100.3C139.3 100.6 136 105.55 138.1 109.3C140.95 114.4 147.1 108.85 151 109.3C155.5 109.45 159.1 114.1 162.7 110.2C166.75 105.85 160.9 101.65 156.55 99.7L143.35 100.3Z" fill="#F6D2A2"/>
</g>
<mask id="mask31_229_233" style="mask-type:luminance" maskUnits="userSpaceOnUse" x="83" y="53" width="136" height="190">
<path d="M83.2002 53.5H218.95V242.5H83.2002V53.5Z" fill="white"/>
</mask>
<g mask="url(#mask31_229_233)">
<path d="M159.55 112.3C158.2 112.3 156.85 111.7 155.5 111.1C154.15 110.5 152.65 109.9 151 109.9H150.55C149.35 109.9 148 110.35 146.5 110.95C144.85 111.55 143.2 112 141.7 112C139.9 112 138.55 111.25 137.65 109.6C136.6 107.8 136.75 105.7 137.8 103.75C139 101.5 141.1 100.15 143.35 99.85L156.7 99.25H156.85C160.15 100.6 163.9 103.15 164.65 106.15C164.95 107.65 164.5 109.15 163.3 110.5C162.1 111.85 160.9 112.3 159.55 112.3ZM151.15 109C152.8 109 154.45 109.75 155.95 110.35C157.3 110.95 158.5 111.4 159.7 111.4C160.75 111.4 161.65 110.95 162.55 110.05C163.6 109 163.9 107.8 163.75 106.6C163.15 104.05 159.55 101.65 156.7 100.45L143.65 101.05C141.7 101.2 139.9 102.55 138.85 104.35C137.95 106 137.95 107.8 138.7 109.3C139.45 110.65 140.35 111.25 141.85 111.25C143.2 111.25 144.7 110.65 146.2 110.2C147.85 109.6 149.2 109.15 150.7 109.15C150.7 108.85 150.85 108.85 151.15 109Z" fill="#231F20"/>
</g>
<mask id="mask32_229_233" style="mask-type:luminance" maskUnits="userSpaceOnUse" x="83" y="53" width="136" height="190">
<path d="M83.2002 53.5H218.95V242.5H83.2002V53.5Z" fill="white"/>
</mask>
<g mask="url(#mask32_229_233)">
<path fill-rule="evenodd" clip-rule="evenodd" d="M142.9 100.15C142.6 93.1 156.1 92.2 157.6 98.05C159.25 104.05 143.5 105.4 142.9 100.15Z" fill="black"/>
</g>
<defs>
<filter id="filter0_d_229_233" x="0" y="0" width="308" height="308" filterUnits="userSpaceOnUse" color-interpolation-filters="sRGB">
<feFlood flood-opacity="0" result="BackgroundImageFix"/>
<feColorMatrix in="SourceAlpha" type="matrix" values="0 0 0 0 0 0 0 0 0 0 0 0 0 0 0 0 0 0 127 0" result="hardAlpha"/>
<feOffset dx="3" dy="6"/>
<feGaussianBlur stdDeviation="8.5"/>
<feComposite in2="hardAlpha" operator="out"/>
<feColorMatrix type="matrix" values="0 0 0 0 0 0 0 0 0 0 0 0 0 0 0 0 0 0 0.25 0"/>
<feBlend mode="normal" in2="BackgroundImageFix" result="effect1_dropShadow_229_233"/>
<feBlend mode="normal" in="SourceGraphic" in2="effect1_dropShadow_229_233" result="shape"/>
</filter>
<linearGradient id="paint0_linear_229_233" x1="-99.5" y1="302" x2="242.5" y2="79" gradientUnits="userSpaceOnUse">
<stop stop-color="#2A0084"/>
<stop offset="1" stop-color="#7D5FBE" stop-opacity="0"/>
</linearGradient>
</defs>
</svg>
