<svg width="308" height="308" viewBox="0 0 308 308" fill="none" xmlns="http://www.w3.org/2000/svg">
<g filter="url(#filter0_d_3_233)">
<rect x="14" y="11" width="274" height="274" rx="60" fill="#7D5FBE"/>
<rect x="14" y="11" width="274" height="274" rx="60" fill="url(#paint0_linear_3_233)"/>
<circle cx="151" cy="148" r="118" fill="white"/>
</g>
<path fill-rule="evenodd" clip-rule="evenodd" d="M141.693 157C121.924 157 105.898 140.883 105.898 121C105.898 101.117 121.924 84.9999 141.693 84.9999C161.463 84.9999 177.488 101.117 177.488 121C177.488 140.883 161.463 157 141.693 157ZM141.693 67C171.347 67 195.386 91.1766 195.386 121C195.386 150.823 171.347 175 141.693 175C112.039 175 88 150.823 88 121C88 91.1766 112.039 67 141.693 67ZM192.765 177.635C196.26 181.15 196.26 186.848 192.765 190.363L156.969 226.364C153.474 229.879 147.809 229.879 144.314 226.364C140.819 222.849 140.819 217.151 144.314 213.636L180.11 177.635C183.605 174.12 189.27 174.12 192.765 177.635ZM213.284 76C213.284 80.9712 209.278 84.9999 204.336 84.9999C199.393 84.9999 195.387 80.9712 195.387 76C195.387 71.0287 199.393 67 204.336 67C209.278 67 213.284 71.0287 213.284 76Z" fill="black"/>
<defs>
<filter id="filter0_d_3_233" x="0" y="0" width="308" height="308" filterUnits="userSpaceOnUse" color-interpolation-filters="sRGB">
<feFlood flood-opacity="0" result="BackgroundImageFix"/>
<feColorMatrix in="SourceAlpha" type="matrix" values="0 0 0 0 0 0 0 0 0 0 0 0 0 0 0 0 0 0 127 0" result="hardAlpha"/>
<feOffset dx="3" dy="6"/>
<feGaussianBlur stdDeviation="8.5"/>
<feComposite in2="hardAlpha" operator="out"/>
<feColorMatrix type="matrix" values="0 0 0 0 0 0 0 0 0 0 0 0 0 0 0 0 0 0 0.25 0"/>
<feBlend mode="normal" in2="BackgroundImageFix" result="effect1_dropShadow_3_233"/>
<feBlend mode="normal" in="SourceGraphic" in2="effect1_dropShadow_3_233" result="shape"/>
</filter>
<linearGradient id="paint0_linear_3_233" x1="-99.5" y1="302" x2="242.5" y2="79" gradientUnits="userSpaceOnUse">
<stop stop-color="#2A0084"/>
<stop offset="1" stop-color="#7D5FBE" stop-opacity="0"/>
</linearGradient>
</defs>
</svg>
