<svg width="308" height="308" viewBox="0 0 308 308" fill="none" xmlns="http://www.w3.org/2000/svg">
<g filter="url(#filter0_d_182_2667)">
<rect x="14" y="11" width="274" height="274" rx="60" fill="#7D5FBE"/>
<rect x="14" y="11" width="274" height="274" rx="60" fill="url(#paint0_linear_182_2667)"/>
<circle cx="151" cy="148" r="118" fill="white"/>
</g>
<g clip-path="url(#clip0_182_2667)">
<path d="M223.107 220.625L187.355 210.18L160.394 225.994L141.582 225.986L114.605 210.18L78.8695 220.625L68 184.619L78.8707 144.659L68 110.874L78.8707 69L134.71 101.733H167.267L223.107 69L233.978 110.874L223.107 144.659L233.978 184.619L223.107 220.625Z" fill="#FF5C16"/>
<path d="M78.8774 69L134.718 101.756L132.498 124.236L78.8774 69ZM114.614 184.634L139.183 202.998L114.614 210.179V184.634ZM137.219 154.274L132.498 124.252L102.272 144.668L102.255 144.66V144.675L102.349 165.689L114.606 154.275L137.219 154.274ZM223.107 69L167.267 101.756L169.48 124.236L223.107 69ZM187.371 184.634L162.801 202.998L187.371 210.179V184.634ZM199.722 144.674V144.659L199.715 144.667L169.488 124.252L164.766 154.274H187.37L199.635 165.687L199.722 144.674Z" fill="#FF5C16"/>
<path d="M114.606 210.179L78.8707 220.624L68 184.634H114.606V210.179ZM137.211 154.266L144.037 197.669L134.577 173.536L102.334 165.687L114.598 154.267L137.211 154.266ZM187.37 210.179L223.107 220.624L233.978 184.633H187.37C187.37 184.634 187.37 210.179 187.37 210.179ZM164.766 154.266L157.94 197.669L167.4 173.536L199.645 165.687L187.373 154.267L164.766 154.266Z" fill="#E34807"/>
<path d="M68 184.619L78.8707 144.659H102.247L102.333 165.68L134.579 173.529L144.039 197.661L139.175 202.975L114.606 184.611H68V184.619ZM233.978 184.619L223.107 144.659H199.729L199.644 165.68L167.4 173.529L157.939 197.661L162.801 202.975L187.372 184.611H233.978V184.619ZM167.267 101.733H134.71L132.499 124.213L144.04 197.637H157.94L169.488 124.213L167.267 101.733Z" fill="#FF8D5D"/>
<path d="M78.8707 69L68 110.874L78.8707 144.659H102.247L132.49 124.238L78.8707 69ZM130.456 162.983H119.866L114.1 168.529L134.586 173.512L130.456 162.975V162.983ZM223.107 69L233.978 110.874L223.107 144.659H199.729L169.488 124.238L223.107 69ZM171.537 162.983H182.143L187.908 168.536L167.399 173.529L171.537 162.975V162.983ZM160.386 211.67L162.802 202.991L157.939 197.677H144.028L139.166 202.991L141.581 211.67" fill="#661800"/>
<path d="M160.386 211.669V226.001H141.583V211.669H160.386Z" fill="#C0C4CD"/>
<path d="M114.614 210.164L141.599 225.993V211.661L139.182 202.983L114.614 210.164ZM187.371 210.164L160.386 225.993V211.661L162.802 202.983L187.371 210.164Z" fill="#E7EBF6"/>
</g>
<defs>
<filter id="filter0_d_182_2667" x="0" y="0" width="308" height="308" filterUnits="userSpaceOnUse" color-interpolation-filters="sRGB">
<feFlood flood-opacity="0" result="BackgroundImageFix"/>
<feColorMatrix in="SourceAlpha" type="matrix" values="0 0 0 0 0 0 0 0 0 0 0 0 0 0 0 0 0 0 127 0" result="hardAlpha"/>
<feOffset dx="3" dy="6"/>
<feGaussianBlur stdDeviation="8.5"/>
<feComposite in2="hardAlpha" operator="out"/>
<feColorMatrix type="matrix" values="0 0 0 0 0 0 0 0 0 0 0 0 0 0 0 0 0 0 0.25 0"/>
<feBlend mode="normal" in2="BackgroundImageFix" result="effect1_dropShadow_182_2667"/>
<feBlend mode="normal" in="SourceGraphic" in2="effect1_dropShadow_182_2667" result="shape"/>
</filter>
<linearGradient id="paint0_linear_182_2667" x1="-99.5" y1="302" x2="242.5" y2="79" gradientUnits="userSpaceOnUse">
<stop stop-color="#2A0084"/>
<stop offset="1" stop-color="#7D5FBE" stop-opacity="0"/>
</linearGradient>
<clipPath id="clip0_182_2667">
<rect width="166" height="157" fill="white" transform="translate(68 69)"/>
</clipPath>
</defs>
</svg>
