<svg width="308" height="308" viewBox="0 0 308 308" fill="none" xmlns="http://www.w3.org/2000/svg">
<g filter="url(#filter0_d_3_231)">
<rect x="14" y="11" width="274" height="274" rx="60" fill="#7D5FBE"/>
<rect x="14" y="11" width="274" height="274" rx="60" fill="url(#paint0_linear_3_231)"/>
<circle cx="151" cy="148" r="118" fill="white"/>
</g>
<path d="M151.08 239.16C201.382 239.16 242.16 198.382 242.16 148.08C242.16 97.7779 201.382 57 151.08 57C100.778 57 60 97.7779 60 148.08C60 198.382 100.778 239.16 151.08 239.16Z" fill="black"/>
<path d="M211.417 216.606L130.087 111.844H114.763V184.678H127.022V127.412L201.794 224.019C205.168 221.761 208.382 219.283 211.417 216.606Z" fill="url(#paint1_linear_3_231)"/>
<path d="M188.846 111.648H176.702V184.512H188.846V111.648Z" fill="url(#paint2_linear_3_231)"/>
<defs>
<filter id="filter0_d_3_231" x="0" y="0" width="308" height="308" filterUnits="userSpaceOnUse" color-interpolation-filters="sRGB">
<feFlood flood-opacity="0" result="BackgroundImageFix"/>
<feColorMatrix in="SourceAlpha" type="matrix" values="0 0 0 0 0 0 0 0 0 0 0 0 0 0 0 0 0 0 127 0" result="hardAlpha"/>
<feOffset dx="3" dy="6"/>
<feGaussianBlur stdDeviation="8.5"/>
<feComposite in2="hardAlpha" operator="out"/>
<feColorMatrix type="matrix" values="0 0 0 0 0 0 0 0 0 0 0 0 0 0 0 0 0 0 0.25 0"/>
<feBlend mode="normal" in2="BackgroundImageFix" result="effect1_dropShadow_3_231"/>
<feBlend mode="normal" in="SourceGraphic" in2="effect1_dropShadow_3_231" result="shape"/>
</filter>
<linearGradient id="paint0_linear_3_231" x1="-99.5" y1="302" x2="242.5" y2="79" gradientUnits="userSpaceOnUse">
<stop stop-color="#2A0084"/>
<stop offset="1" stop-color="#7D5FBE" stop-opacity="0"/>
</linearGradient>
<linearGradient id="paint1_linear_3_231" x1="170.423" y1="175.094" x2="206.349" y2="219.622" gradientUnits="userSpaceOnUse">
<stop stop-color="white"/>
<stop offset="1" stop-color="white" stop-opacity="0"/>
</linearGradient>
<linearGradient id="paint2_linear_3_231" x1="182.774" y1="111.648" x2="182.57" y2="165.158" gradientUnits="userSpaceOnUse">
<stop stop-color="white"/>
<stop offset="1" stop-color="white" stop-opacity="0"/>
</linearGradient>
</defs>
</svg>
