<svg width="308" height="308" viewBox="0 0 308 308" fill="none" xmlns="http://www.w3.org/2000/svg">
<g filter="url(#filter0_d_214_167)">
<rect x="14" y="11" width="274" height="274" rx="60" fill="#7D5FBE"/>
<rect x="14" y="11" width="274" height="274" rx="60" fill="url(#paint0_linear_214_167)"/>
<circle cx="151" cy="148" r="118" fill="white"/>
</g>
<path d="M150.801 242.8C148.197 242.8 145.767 242.109 143.508 240.899L120.411 227.253C116.938 225.352 118.675 224.661 119.715 224.315C124.404 222.76 125.274 222.414 130.136 219.65C130.657 219.304 131.35 219.477 131.871 219.822L149.587 230.361C150.281 230.706 151.15 230.706 151.67 230.361L220.962 190.454C221.658 190.108 222.004 189.419 222.004 188.555V108.914C222.004 108.05 221.658 107.358 220.964 107.013L151.67 67.2784C150.977 66.9328 150.105 66.9328 149.587 67.2784L80.2936 107.013C79.5951 107.358 79.2483 108.222 79.2483 108.914V188.555C79.2483 189.244 79.5976 190.108 80.2912 190.454L99.2216 201.338C109.467 206.522 115.893 200.474 115.893 194.428V115.823C115.893 114.786 116.76 113.75 117.976 113.75H126.834C127.875 113.75 128.918 114.614 128.918 115.823V194.428C128.918 208.077 121.452 216.023 108.424 216.023C104.431 216.023 101.305 216.023 92.449 211.703L74.2123 201.338C71.9949 200.057 70.1543 198.217 68.8748 196.004C67.5953 193.791 66.9218 191.282 66.9219 188.728V109.086C66.9216 106.532 67.5953 104.022 68.8752 101.808C70.1552 99.5947 71.9965 97.7553 74.2147 96.4744L143.506 56.5672C147.851 54.148 153.754 54.148 158.096 56.5672L227.387 96.4744C229.606 97.755 231.448 99.5943 232.728 101.808C234.009 104.021 234.683 106.531 234.683 109.086V188.728C234.682 191.283 234.008 193.792 232.728 196.005C231.447 198.218 229.606 200.057 227.387 201.338L158.096 241.245C156.013 242.109 153.407 242.8 150.801 242.8Z" fill="#5FA04E"/>
<path d="M172.337 188.037C141.943 188.037 135.693 174.215 135.693 162.467C135.693 161.43 136.56 160.394 137.776 160.394H146.808C147.851 160.394 148.718 161.085 148.718 162.122C150.107 171.278 154.101 175.77 172.511 175.77C187.099 175.77 193.349 172.487 193.349 164.714C193.349 160.223 191.615 156.938 168.862 154.694C149.932 152.793 138.125 148.646 138.125 133.617C138.125 119.625 149.934 111.333 169.732 111.333C191.962 111.333 202.901 118.934 204.293 135.518C204.293 136.036 204.117 136.554 203.77 137.073C203.423 137.418 202.903 137.764 202.38 137.764H193.175C192.73 137.749 192.302 137.589 191.957 137.308C191.612 137.027 191.369 136.641 191.265 136.209C189.182 126.705 183.799 123.597 169.558 123.597C153.58 123.597 151.671 129.126 151.671 133.271C151.671 138.282 153.927 139.838 175.464 142.6C196.824 145.365 206.894 149.339 206.894 164.195C206.894 179.399 194.218 188.037 172.337 188.037Z" fill="#5FA04E"/>
<defs>
<filter id="filter0_d_214_167" x="0" y="0" width="308" height="308" filterUnits="userSpaceOnUse" color-interpolation-filters="sRGB">
<feFlood flood-opacity="0" result="BackgroundImageFix"/>
<feColorMatrix in="SourceAlpha" type="matrix" values="0 0 0 0 0 0 0 0 0 0 0 0 0 0 0 0 0 0 127 0" result="hardAlpha"/>
<feOffset dx="3" dy="6"/>
<feGaussianBlur stdDeviation="8.5"/>
<feComposite in2="hardAlpha" operator="out"/>
<feColorMatrix type="matrix" values="0 0 0 0 0 0 0 0 0 0 0 0 0 0 0 0 0 0 0.25 0"/>
<feBlend mode="normal" in2="BackgroundImageFix" result="effect1_dropShadow_214_167"/>
<feBlend mode="normal" in="SourceGraphic" in2="effect1_dropShadow_214_167" result="shape"/>
</filter>
<linearGradient id="paint0_linear_214_167" x1="-99.5" y1="302" x2="242.5" y2="79" gradientUnits="userSpaceOnUse">
<stop stop-color="#2A0084"/>
<stop offset="1" stop-color="#7D5FBE" stop-opacity="0"/>
</linearGradient>
</defs>
</svg>
