<svg width="308" height="308" viewBox="0 0 308 308" fill="none" xmlns="http://www.w3.org/2000/svg">
<g filter="url(#filter0_d_227_81)">
<rect x="14" y="11" width="274" height="274" rx="60" fill="#7D5FBE"/>
<rect x="14" y="11" width="274" height="274" rx="60" fill="url(#paint0_linear_227_81)"/>
<circle cx="151" cy="148" r="118" fill="white"/>
</g>
<g clip-path="url(#clip0_227_81)">
<path d="M150.793 131.887C141.959 131.887 134.798 139.035 134.798 147.854C134.798 156.672 141.959 163.82 150.793 163.82C159.628 163.82 166.789 156.672 166.789 147.854C166.789 139.035 159.628 131.887 150.793 131.887Z" fill="#58C4DC"/>
<path d="M233.988 147.998C233.988 135.463 222.359 124.469 203.844 117.234C204.091 115.605 204.315 113.993 204.474 112.41C206.3 94.3989 201.953 81.399 192.238 75.7991C181.369 69.5344 166.017 74.0814 150.494 86.4813C134.971 74.0814 119.619 69.5344 108.75 75.7991C99.0356 81.399 94.688 94.3989 96.5142 112.41C96.6733 113.993 96.8913 115.61 97.1446 117.246C95.6011 117.834 94.0871 118.457 92.632 119.11C76.1017 126.528 67 136.798 67 147.998C67 160.534 78.629 171.528 97.1446 178.763C96.8913 180.392 96.6733 182.004 96.5142 183.586C94.688 201.598 99.0356 214.598 108.75 220.198C112.09 222.088 115.874 223.055 119.713 222.998C128.915 222.998 139.66 218.162 150.494 209.515C161.322 218.162 172.073 222.998 181.287 222.998C185.125 223.054 188.91 222.087 192.25 220.198C201.964 214.598 206.312 201.598 204.486 183.586C204.327 182.004 204.103 180.392 203.855 178.763C222.371 171.539 234 160.528 234 147.998M181.216 80.9402C183.684 80.8807 186.124 81.4776 188.285 82.6696C195.031 86.5578 198.059 97.1047 196.586 111.605C196.486 112.593 196.368 113.593 196.226 114.599C188.528 112.284 180.644 110.632 172.662 109.663C167.824 103.241 162.443 97.2451 156.58 91.7401C165.787 84.6343 174.43 80.9402 181.21 80.9402M178.047 163.881C175.067 169.044 171.823 174.051 168.326 178.88C162.4 179.488 156.446 179.791 150.488 179.786C144.532 179.79 138.581 179.488 132.656 178.88C129.169 174.051 125.934 169.044 122.965 163.881C119.986 158.731 117.278 153.43 114.853 147.998C117.278 142.567 119.986 137.265 122.965 132.116C125.93 126.973 129.154 121.985 132.626 117.169C138.562 116.546 144.526 116.236 150.494 116.24C156.45 116.236 162.402 116.539 168.326 117.146C171.811 121.969 175.047 126.965 178.023 132.116C181 137.267 183.708 142.568 186.135 147.998C183.708 153.429 181 158.73 178.023 163.881M190.188 157.998C192.058 163.089 193.593 168.296 194.783 173.586C189.617 175.194 184.351 176.462 179.019 177.38C181.045 174.329 183.009 171.155 184.91 167.857C186.789 164.598 188.55 161.31 190.212 158.022M139.307 187.369C142.971 187.592 146.712 187.721 150.5 187.721C154.288 187.721 158.052 187.592 161.722 187.369C158.243 191.53 154.494 195.46 150.5 199.133C146.515 195.461 142.776 191.531 139.307 187.369ZM121.975 177.369C116.641 176.454 111.373 175.191 106.205 173.586C107.391 168.304 108.92 163.105 110.782 158.022C112.42 161.31 114.176 164.598 116.084 167.857C117.993 171.116 119.967 174.328 121.975 177.38M110.782 137.969C108.926 132.904 107.401 127.725 106.217 122.463C111.372 120.857 116.626 119.586 121.946 118.657C119.931 121.699 117.958 124.852 116.055 128.14C114.152 131.428 112.414 134.675 110.753 137.969M161.687 108.622C158.023 108.399 154.282 108.269 150.465 108.269C146.679 108.269 142.948 108.387 139.272 108.622C142.74 104.46 146.479 100.53 150.465 96.8577C154.46 100.529 158.209 104.459 161.687 108.622ZM184.898 128.14C182.989 124.838 181.016 121.661 178.977 118.61C184.324 119.529 189.604 120.798 194.783 122.41C193.595 127.692 192.066 132.891 190.206 137.975C188.568 134.687 186.807 131.399 184.904 128.146M104.426 111.61C102.936 97.1165 105.981 86.5637 112.721 82.6755C114.883 81.4853 117.322 80.8886 119.79 80.9461C126.57 80.9461 135.213 84.6402 144.42 91.746C138.553 97.2548 133.168 103.255 128.326 109.681C120.347 110.655 112.464 112.3 104.762 114.599C104.626 113.593 104.503 112.599 104.408 111.61M95.8957 126.352C96.8029 125.959 97.7278 125.567 98.6704 125.175C100.523 132.981 103.036 140.616 106.181 147.998C103.03 155.395 100.515 163.046 98.6645 170.869C83.6541 164.722 74.9529 156.204 74.9529 147.998C74.9529 140.222 82.6113 132.334 95.8957 126.352ZM112.721 213.321C105.981 209.433 102.936 198.88 104.426 184.386C104.52 183.398 104.644 182.404 104.779 181.392C112.478 183.707 120.362 185.358 128.344 186.327C133.184 192.752 138.564 198.752 144.426 204.262C131.59 214.162 119.861 217.427 112.738 213.321M196.58 184.386C198.053 198.886 195.025 209.433 188.279 213.321C181.163 217.439 169.428 214.162 156.597 204.262C162.457 198.752 167.836 192.752 172.674 186.327C180.656 185.358 188.539 183.707 196.238 181.392C196.38 182.404 196.497 183.398 196.598 184.386M202.359 170.857C200.503 163.039 197.986 155.392 194.836 147.998C197.985 140.601 200.5 132.95 202.353 125.128C217.334 131.275 226.059 139.793 226.059 147.998C226.059 156.204 217.358 164.722 202.347 170.869" fill="#58C4DC"/>
</g>
<defs>
<filter id="filter0_d_227_81" x="0" y="0" width="308" height="308" filterUnits="userSpaceOnUse" color-interpolation-filters="sRGB">
<feFlood flood-opacity="0" result="BackgroundImageFix"/>
<feColorMatrix in="SourceAlpha" type="matrix" values="0 0 0 0 0 0 0 0 0 0 0 0 0 0 0 0 0 0 127 0" result="hardAlpha"/>
<feOffset dx="3" dy="6"/>
<feGaussianBlur stdDeviation="8.5"/>
<feComposite in2="hardAlpha" operator="out"/>
<feColorMatrix type="matrix" values="0 0 0 0 0 0 0 0 0 0 0 0 0 0 0 0 0 0 0.25 0"/>
<feBlend mode="normal" in2="BackgroundImageFix" result="effect1_dropShadow_227_81"/>
<feBlend mode="normal" in="SourceGraphic" in2="effect1_dropShadow_227_81" result="shape"/>
</filter>
<linearGradient id="paint0_linear_227_81" x1="-99.5" y1="302" x2="242.5" y2="79" gradientUnits="userSpaceOnUse">
<stop stop-color="#2A0084"/>
<stop offset="1" stop-color="#7D5FBE" stop-opacity="0"/>
</linearGradient>
<clipPath id="clip0_227_81">
<rect width="167" height="150" fill="white" transform="translate(67 73)"/>
</clipPath>
</defs>
</svg>
