<svg width="308" height="308" viewBox="0 0 308 308" fill="none" xmlns="http://www.w3.org/2000/svg">
<g filter="url(#filter0_d_104_2520)">
<rect x="14" y="11" width="274" height="274" rx="60" fill="#7D5FBE"/>
<rect x="14" y="11" width="274" height="274" rx="60" fill="url(#paint0_linear_104_2520)"/>
<circle cx="151" cy="148" r="118" fill="white"/>
</g>
<g clip-path="url(#clip0_104_2520)">
<path d="M228.625 56H73.375C65.4359 56 59 62.4359 59 70.375V225.625C59 233.564 65.4359 240 73.375 240H228.625C236.564 240 243 233.564 243 225.625V70.375C243 62.4359 236.564 56 228.625 56Z" fill="#3178C6"/>
<path fill-rule="evenodd" clip-rule="evenodd" d="M167.185 200.091V219.943C170.413 221.598 174.232 222.838 178.64 223.666C183.048 224.493 187.694 224.906 192.579 224.906C197.339 224.906 201.861 224.451 206.145 223.541C210.428 222.631 214.185 221.132 217.413 219.044C220.642 216.955 223.198 214.226 225.082 210.855C226.965 207.484 227.906 203.318 227.906 198.355C227.906 194.757 227.368 191.603 226.292 188.894C225.216 186.185 223.663 183.776 221.635 181.667C219.608 179.557 217.175 177.666 214.341 175.99C211.505 174.316 208.307 172.734 204.747 171.245C202.14 170.169 199.802 169.125 197.732 168.112C195.662 167.099 193.903 166.065 192.455 165.01C191.006 163.956 189.888 162.839 189.102 161.66C188.315 160.481 187.922 159.148 187.922 157.659C187.922 156.294 188.274 155.064 188.977 153.968C189.681 152.872 190.675 151.931 191.958 151.145C193.241 150.359 194.814 149.749 196.677 149.315C198.539 148.88 200.609 148.663 202.885 148.663C204.541 148.663 206.29 148.788 208.131 149.036C209.973 149.284 211.826 149.666 213.689 150.184C215.551 150.7 217.361 151.352 219.121 152.138C220.88 152.923 222.505 153.833 223.995 154.867V136.318C220.973 135.16 217.672 134.302 214.092 133.744C210.512 133.185 206.403 132.906 201.767 132.906C197.049 132.906 192.579 133.413 188.357 134.426C184.135 135.439 180.42 137.021 177.212 139.172C174.004 141.323 171.469 144.063 169.606 147.392C167.744 150.721 166.812 154.702 166.812 159.334C166.812 165.248 168.52 170.293 171.935 174.471C175.35 178.647 180.533 182.184 187.487 185.079C190.219 186.196 192.765 187.291 195.124 188.367C197.484 189.442 199.522 190.559 201.24 191.717C202.958 192.874 204.313 194.136 205.307 195.501C206.3 196.866 206.797 198.417 206.797 200.154C206.797 201.435 206.486 202.625 205.865 203.721C205.245 204.816 204.303 205.768 203.04 206.575C201.778 207.381 200.205 208.011 198.322 208.466C196.439 208.921 194.234 209.149 191.709 209.149C187.405 209.149 183.142 208.394 178.92 206.884C174.697 205.375 170.786 203.111 167.185 200.091ZM134.096 150.69H159.625V134.344H88.4688V150.69H113.873V223.469H134.096V150.69Z" fill="white"/>
</g>
<defs>
<filter id="filter0_d_104_2520" x="0" y="0" width="308" height="308" filterUnits="userSpaceOnUse" color-interpolation-filters="sRGB">
<feFlood flood-opacity="0" result="BackgroundImageFix"/>
<feColorMatrix in="SourceAlpha" type="matrix" values="0 0 0 0 0 0 0 0 0 0 0 0 0 0 0 0 0 0 127 0" result="hardAlpha"/>
<feOffset dx="3" dy="6"/>
<feGaussianBlur stdDeviation="8.5"/>
<feComposite in2="hardAlpha" operator="out"/>
<feColorMatrix type="matrix" values="0 0 0 0 0 0 0 0 0 0 0 0 0 0 0 0 0 0 0.25 0"/>
<feBlend mode="normal" in2="BackgroundImageFix" result="effect1_dropShadow_104_2520"/>
<feBlend mode="normal" in="SourceGraphic" in2="effect1_dropShadow_104_2520" result="shape"/>
</filter>
<linearGradient id="paint0_linear_104_2520" x1="-99.5" y1="302" x2="242.5" y2="79" gradientUnits="userSpaceOnUse">
<stop stop-color="#2A0084"/>
<stop offset="1" stop-color="#7D5FBE" stop-opacity="0"/>
</linearGradient>
<clipPath id="clip0_104_2520">
<rect x="59" y="56" width="184" height="184" rx="92" fill="white"/>
</clipPath>
</defs>
</svg>
