<svg width="84" height="84" viewBox="0 0 84 84" fill="none" xmlns="http://www.w3.org/2000/svg">
<rect width="84" height="84" rx="42" fill="white"/>
<circle cx="42" cy="42" r="41.5" stroke="white"/>
<path d="M48.1944 49.3731L48.2017 49.3682C48.2017 49.3682 48.1944 49.3731 48.1895 49.3755C48.1919 49.3755 48.1944 49.3755 48.1968 49.3755L48.1944 49.3731Z" fill="black"/>
<path d="M48.1892 49.376C36.7128 52.8231 27.2223 57.8515 21.277 63.7404L21.0146 64.0028C22.596 65.4983 24.3293 66.8369 26.2024 67.9745L26.6045 67.4817C28.2275 65.4983 29.9682 63.5835 31.78 61.7791C36.6417 56.9345 42.2022 52.7421 48.1892 49.376Z" fill="black"/>
<path d="M49.5159 44.2666H11.6299C12.0883 50.413 14.3709 56.0494 17.9528 60.6341L18.1171 60.4698C21.7971 56.8389 26.5877 53.5389 32.3663 50.6631C37.4315 48.1403 43.2469 45.9754 49.5159 44.2666Z" fill="black"/>
<path d="M34.9921 19.0047C45.2623 29.2381 58.1876 36.0047 72.3657 38.5716C70.6569 23.4006 57.7438 11.6006 42.053 11.6006C37.9096 11.6006 33.96 12.4268 30.3535 13.9174C31.8172 15.6802 33.3814 17.3964 34.9921 19.0071V19.0047Z" fill="black"/>
<path d="M21.2775 20.257C27.2228 26.1558 36.7182 31.1768 48.197 34.6313C42.2051 31.2578 36.6398 27.0678 31.7756 22.2208C29.9687 20.4213 28.2305 18.5065 26.6001 16.5182L26.198 16.0254C24.3249 17.163 22.5916 18.4991 21.0176 19.9947L21.2799 20.257H21.2775Z" fill="black"/>
<path d="M34.9921 64.9928C33.374 66.6035 31.8123 68.3197 30.3535 70.0825C33.9551 71.5731 37.9096 72.3993 42.053 72.3993C57.7438 72.3993 70.6569 60.5969 72.3706 45.4209C58.1949 47.9878 45.2696 54.7545 34.997 64.9879L34.9921 64.9928Z" fill="black"/>
<path d="M32.3589 33.327V33.3319C26.5852 30.456 21.7971 27.1536 18.1171 23.5275L17.9528 23.3633C14.3709 27.9479 12.0883 33.5844 11.6299 39.7308H49.5085C43.242 38.0219 37.4315 35.8571 32.3589 33.327Z" fill="black"/>
</svg>
